<svg xmlns="http://www.w3.org/2000/svg" viewBox="0 0 606.61 270.03"><defs><style>.cls-1{fill:#fff;}.cls-2{fill:none;stroke:#fff;stroke-width:3px;}</style></defs><g id="레이어_2" data-name="레이어 2"><g id="레이어_1-2" data-name="레이어 1"><path class="cls-1" d="M370.66,179.81h-3.82a15.73,15.73,0,0,1-4.85,6.57,18.68,18.68,0,0,1-6.52,3.8V195a16.16,16.16,0,0,0,11.2-8.14v35.67H356.23v4.31h24.55v-4.31H370.66ZM347,223.71a14.28,14.28,0,0,0,3.26-9.56,16.32,16.32,0,0,0-1.89-8.05,7.33,7.33,0,0,0-5.22-4V202a8.14,8.14,0,0,0,4.23-3.87,14.17,14.17,0,0,0,1.59-7c0-3.81-1-6.78-3-8.89a10.07,10.07,0,0,0-7.59-3.16,9.67,9.67,0,0,0-7.38,3.1q-2.91,3.09-3.39,8.75h4a9.15,9.15,0,0,1,2-5.59,6.16,6.16,0,0,1,4.82-2q6.53,0,6.52,8.14c0,2.83-.62,5-1.86,6.43a6.44,6.44,0,0,1-5.19,2.19H337v4.24h.86a7.81,7.81,0,0,1,6.22,2.49c1.46,1.66,2.18,4,2.18,7s-.69,5.26-2.07,6.87a7.12,7.12,0,0,1-5.74,2.42,7,7,0,0,1-5.7-2.45,12.58,12.58,0,0,1-2.54-6.77h-4q.52,6.6,3.77,10.07a11.79,11.79,0,0,0,17-.37m-34.28-4.51h-5.54v7.6h5.54ZM285,179.81h-3.82a15.73,15.73,0,0,1-4.85,6.57,18.59,18.59,0,0,1-6.52,3.8V195a16.2,16.2,0,0,0,11.21-8.14v35.67H270.6v4.31h24.56v-4.31H285ZM251.32,219.2h-5.55v7.6h5.55Zm-29.84-39.39h-3.82a15.64,15.64,0,0,1-4.85,6.57,18.56,18.56,0,0,1-6.51,3.8V195a16.2,16.2,0,0,0,11.2-8.14v35.67H207.05v4.31h24.56v-4.31H221.48Zm-20.19,47v-4.31H181.47q.85-6.86,8.89-13.06,2.69-2.09,4.17-3.4a32.34,32.34,0,0,0,3.28-3.46,13.79,13.79,0,0,0,2.62-4.68,18.11,18.11,0,0,0,.8-5.55,14,14,0,0,0-3.17-9.56,10.8,10.8,0,0,0-8.57-3.64,11,11,0,0,0-8.64,3.67q-3.25,3.67-3.47,9.86h4a10.7,10.7,0,0,1,2.23-6.83,8.14,8.14,0,0,1,11.55,0,9.57,9.57,0,0,1,2.05,6.4,13.18,13.18,0,0,1-.65,4.21,11,11,0,0,1-2.07,3.6,25.52,25.52,0,0,1-2.67,2.76c-.82.72-1.94,1.61-3.34,2.69q-11.15,8.55-11.14,18.85v2.42Zm-47.88-8.14,13.68-27.81a41.8,41.8,0,0,1,1.56,12.32,51.84,51.84,0,0,1-.83,9.66,19,19,0,0,1-3,7.38,6.28,6.28,0,0,1-5.26,3c-2.58,0-4.65-1.52-6.19-4.57m11.85-31.84-13.41,27.33a47.23,47.23,0,0,1-1.08-10.64A39.5,39.5,0,0,1,153,189.17q2.26-5.71,6.74-5.72,3.33,0,5.49,3.37m-12.84-4.21a20.32,20.32,0,0,0-4.34,8.78,51,51,0,0,0-1.29,12,50.24,50.24,0,0,0,1.32,12.05,20.19,20.19,0,0,0,4.33,8.71,9.48,9.48,0,0,0,7.38,3.4,9.36,9.36,0,0,0,7.35-3.43,20,20,0,0,0,4.23-8.72,59.32,59.32,0,0,0,0-24.13,20.25,20.25,0,0,0-4.2-8.69,9.34,9.34,0,0,0-7.33-3.43,9.53,9.53,0,0,0-7.45,3.47M142.05,226.8v-4.31H122.23q.85-6.86,8.89-13.06,2.69-2.09,4.17-3.4a32.34,32.34,0,0,0,3.28-3.46,13.79,13.79,0,0,0,2.62-4.68,18.11,18.11,0,0,0,.8-5.55,14,14,0,0,0-3.17-9.56,10.8,10.8,0,0,0-8.57-3.64,11,11,0,0,0-8.64,3.67q-3.26,3.67-3.47,9.86h4a10.7,10.7,0,0,1,2.23-6.83,8.14,8.14,0,0,1,11.55,0,9.57,9.57,0,0,1,2,6.4,13.18,13.18,0,0,1-.65,4.21,11,11,0,0,1-2.07,3.6,25.52,25.52,0,0,1-2.67,2.76c-.82.72-1.93,1.61-3.34,2.69q-11.15,8.55-11.14,18.85v2.42Z"/><path class="cls-1" d="M447,144.62H422.84v4.64H447ZM393.6,157.41l13.68-27.8a41.68,41.68,0,0,1,1.56,12.31,51.84,51.84,0,0,1-.83,9.66,19,19,0,0,1-3,7.38,6.27,6.27,0,0,1-5.26,3c-2.58,0-4.65-1.53-6.19-4.58m11.85-31.84L392,152.9A47.23,47.23,0,0,1,391,142.26a39.5,39.5,0,0,1,2.26-14.34q2.26-5.72,6.74-5.72,3.33,0,5.49,3.37m-12.84-4.21a20.32,20.32,0,0,0-4.34,8.78,51,51,0,0,0-1.29,12,50.24,50.24,0,0,0,1.32,12.05,20.19,20.19,0,0,0,4.33,8.71,9.48,9.48,0,0,0,7.38,3.4,9.36,9.36,0,0,0,7.35-3.43,20,20,0,0,0,4.23-8.72,59.32,59.32,0,0,0,0-24.13,20.25,20.25,0,0,0-4.2-8.69,9.34,9.34,0,0,0-7.33-3.43,9.53,9.53,0,0,0-7.45,3.47m-13.85,41.1A14.23,14.23,0,0,0,382,152.9a16.43,16.43,0,0,0-1.88-8.05,7.37,7.37,0,0,0-5.23-4v-.07a8.14,8.14,0,0,0,4.23-3.87,14.17,14.17,0,0,0,1.59-7q0-5.72-3-8.88a10,10,0,0,0-7.59-3.17,9.67,9.67,0,0,0-7.38,3.1q-2.91,3.09-3.39,8.75h4a9.15,9.15,0,0,1,2-5.59,6.15,6.15,0,0,1,4.82-2q6.51,0,6.52,8.15c0,2.82-.62,5-1.86,6.42a6.45,6.45,0,0,1-5.2,2.19h-.92v4.24h.87a7.84,7.84,0,0,1,6.22,2.49,10.34,10.34,0,0,1,2.18,7q0,4.44-2.08,6.86a7.12,7.12,0,0,1-5.73,2.43,7,7,0,0,1-5.71-2.46,12.55,12.55,0,0,1-2.53-6.77h-4q.54,6.6,3.77,10.07a11.79,11.79,0,0,0,17-.37M342.33,158h-5.54v7.6h5.54Zm-18.25,7.6v-4.3H304.26q.86-6.87,8.88-13.06,2.7-2.1,4.18-3.4a33.59,33.59,0,0,0,3.28-3.47,13.76,13.76,0,0,0,2.61-4.68,18.06,18.06,0,0,0,.81-5.55,14,14,0,0,0-3.18-9.56,10.76,10.76,0,0,0-8.56-3.64,11,11,0,0,0-8.64,3.67q-3.25,3.68-3.48,9.86h4a10.76,10.76,0,0,1,2.24-6.83,8.14,8.14,0,0,1,11.55,0A9.62,9.62,0,0,1,320,131a13.14,13.14,0,0,1-.65,4.21,10.93,10.93,0,0,1-2.07,3.6,25.52,25.52,0,0,1-2.67,2.76c-.83.72-1.94,1.61-3.34,2.69q-11.15,8.55-11.15,18.85v2.42Zm-39.05-47h-3.82a15.73,15.73,0,0,1-4.85,6.57,18.59,18.59,0,0,1-6.52,3.8v4.78a16.17,16.17,0,0,0,11.21-8.14v35.68H270.6v4.3h24.56v-4.3H285ZM251.32,158h-5.55v7.6h5.55Zm-38.67-.54,13.68-27.8a41.68,41.68,0,0,1,1.56,12.31,51.84,51.84,0,0,1-.83,9.66,19,19,0,0,1-3,7.38,6.27,6.27,0,0,1-5.26,3c-2.58,0-4.65-1.53-6.19-4.58m11.85-31.84L211.09,152.9A47.23,47.23,0,0,1,210,142.26a39.5,39.5,0,0,1,2.26-14.34q2.26-5.72,6.74-5.72,3.33,0,5.49,3.37m-12.85-4.21a20.42,20.42,0,0,0-4.33,8.78,51,51,0,0,0-1.29,12,50.24,50.24,0,0,0,1.32,12.05,20.19,20.19,0,0,0,4.33,8.71,9.48,9.48,0,0,0,7.38,3.4,9.36,9.36,0,0,0,7.35-3.43,20,20,0,0,0,4.23-8.72,59.32,59.32,0,0,0,0-24.13,20.25,20.25,0,0,0-4.2-8.69,9.34,9.34,0,0,0-7.33-3.43,9.57,9.57,0,0,0-7.46,3.47m-10.36,44.19v-4.3H181.47q.85-6.87,8.89-13.06,2.69-2.1,4.17-3.4a32.55,32.55,0,0,0,3.28-3.47,13.79,13.79,0,0,0,2.62-4.68,18.07,18.07,0,0,0,.8-5.55,14,14,0,0,0-3.17-9.56,10.8,10.8,0,0,0-8.57-3.64,11,11,0,0,0-8.64,3.67q-3.25,3.68-3.47,9.86h4a10.7,10.7,0,0,1,2.23-6.83,8.14,8.14,0,0,1,11.55,0,9.57,9.57,0,0,1,2.05,6.4,13.14,13.14,0,0,1-.65,4.21,10.93,10.93,0,0,1-2.07,3.6,25.52,25.52,0,0,1-2.67,2.76c-.82.72-1.94,1.61-3.34,2.69q-11.15,8.55-11.14,18.85v2.42Zm-47.88-8.14,13.68-27.8a41.68,41.68,0,0,1,1.56,12.31,51.84,51.84,0,0,1-.83,9.66,19,19,0,0,1-3,7.38,6.27,6.27,0,0,1-5.26,3c-2.58,0-4.65-1.53-6.19-4.58m11.85-31.84L151.85,152.9a47.23,47.23,0,0,1-1.08-10.64A39.5,39.5,0,0,1,153,127.92q2.26-5.72,6.74-5.72,3.33,0,5.49,3.37m-12.84-4.21a20.32,20.32,0,0,0-4.34,8.78,51,51,0,0,0-1.29,12,50.24,50.24,0,0,0,1.32,12.05,20.19,20.19,0,0,0,4.33,8.71,9.48,9.48,0,0,0,7.38,3.4,9.36,9.36,0,0,0,7.35-3.43,20,20,0,0,0,4.23-8.72,59.32,59.32,0,0,0,0-24.13,20.25,20.25,0,0,0-4.2-8.69,9.34,9.34,0,0,0-7.33-3.43,9.53,9.53,0,0,0-7.45,3.47m-10.37,44.19v-4.3H122.23q.85-6.87,8.89-13.06,2.69-2.1,4.17-3.4a32.55,32.55,0,0,0,3.28-3.47,13.79,13.79,0,0,0,2.62-4.68,18.07,18.07,0,0,0,.8-5.55,14,14,0,0,0-3.17-9.56,10.8,10.8,0,0,0-8.57-3.64,11,11,0,0,0-8.64,3.67q-3.26,3.68-3.47,9.86h4a10.7,10.7,0,0,1,2.23-6.83,8.14,8.14,0,0,1,11.55,0,9.57,9.57,0,0,1,2,6.4,13.14,13.14,0,0,1-.65,4.21,10.93,10.93,0,0,1-2.07,3.6,25.52,25.52,0,0,1-2.67,2.76c-.82.72-1.93,1.61-3.34,2.69q-11.15,8.55-11.14,18.85v2.42Z"/><polygon class="cls-2" points="27.13 66.48 31.81 66.84 36.45 66.51 41.27 67 45.19 63.84 49.88 63.04 53.99 60.75 58.31 58.39 59.61 53.29 61.95 49.41 64.27 45.46 65.67 41.08 67.55 36.61 67.91 31.8 65.42 27.41 64.59 22.86 64.14 17.83 59.84 14.97 57.29 11.05 53.98 7.69 50.35 4.5 45.85 2.77 41.08 2.23 36.45 1.51 31.82 2.14 27.17 2.29 22.72 3.69 18.88 6.33 13.7 6.96 10.77 10.89 7.14 14.05 4.08 17.84 3.05 22.66 1.75 27.2 2.47 31.98 2.4 36.52 1.52 41.34 2.25 46.14 4.52 50.42 7.02 54.55 10.14 58.24 13.86 61.33 18.34 63.19 22.89 64.39 27.13 66.48"/><polygon class="cls-2" points="232.68 267.96 237.37 268.31 242.01 267.98 246.83 268.47 250.74 265.32 255.43 264.51 259.55 262.22 263.86 259.87 265.16 254.76 267.5 250.88 269.82 246.93 271.23 242.55 273.11 238.08 273.47 233.28 270.97 228.89 270.14 224.33 269.69 219.3 265.4 216.44 262.85 212.53 259.54 209.16 255.9 205.97 251.41 204.25 246.63 203.7 242.01 202.99 237.38 203.61 232.72 203.76 228.28 205.16 224.44 207.8 219.25 208.43 216.33 212.37 212.7 215.52 209.64 219.31 208.61 224.13 207.31 228.68 208.02 233.46 207.95 237.99 207.08 242.81 207.81 247.61 210.07 251.89 212.57 256.02 215.69 259.72 219.42 262.8 223.89 264.66 228.45 265.86 232.68 267.96"/><polygon class="cls-2" points="601.31 61.77 602.71 57.28 603.43 52.69 605 48.1 602.8 43.58 603.07 38.83 601.76 34.3 600.44 29.57 595.76 27.15 592.5 24 589.18 20.85 585.23 18.5 581.29 15.66 576.69 14.22 571.85 15.67 567.23 15.45 562.23 14.76 558.47 18.3 554.08 19.91 550.06 22.37 546.14 25.2 543.44 29.19 541.84 33.72 540.1 38.06 539.67 42.72 538.76 47.29 539.13 51.93 540.84 56.27 540.29 61.47 543.46 65.2 545.72 69.44 548.73 73.28 553.19 75.37 557.33 77.65 562.14 78.03 566.55 79.12 571.05 81.06 575.89 81.43 580.57 80.18 585.15 78.68 589.46 76.47 593.3 73.53 596.12 69.59 598.31 65.42 601.31 61.77"/></g></g></svg>