<svg xmlns="http://www.w3.org/2000/svg" viewBox="0 0 685 387.27"><defs><style>.cls-1{fill:#fff;}.cls-2{fill:none;stroke:#fff;stroke-width:3px;}</style></defs><g id="레이어_2" data-name="레이어 2"><g id="레이어_1-2" data-name="레이어 1"><path class="cls-1" d="M673.61,81.52a3.58,3.58,0,0,1-.11.73,7,7,0,0,0-.21.79,10.93,10.93,0,0,0-.06,1.2q-.32,12.7-.26,25.55,0,12.51.37,24.56a16.14,16.14,0,0,1-.21,4.63,3.24,3.24,0,0,1-2.23,2.12c-1.34.31-2.19,0-2.54-1a13.72,13.72,0,0,1-.26-4.24l0-1.52q.48-12.25.64-24.56.11-12.78-.16-25a9.36,9.36,0,0,0-.32-2.32,1.9,1.9,0,0,0-1-1.39,2.72,2.72,0,0,1-1.85-2.85c.18-1.23,1-1.85,2.54-1.85a6.6,6.6,0,0,1,3.87,1.32,3.9,3.9,0,0,1,1.85,3,3.06,3.06,0,0,1-.1.79M642,84.9l-4.13.2-1,.06a10.73,10.73,0,0,1-3.6.07c-.67-.27-1.2-1.08-1.59-2.45-.53-1.76-.4-2.85.37-3.24a5.06,5.06,0,0,1,2.92,0l1.58.26a85.71,85.71,0,0,0,8.9.46q4.25-.06,8.1-.46a13.85,13.85,0,0,1,4.29.07q1.65.52.9,2.91A2.93,2.93,0,0,1,657.08,85a10,10,0,0,1-3.55.14l-5.4-.2-.1,1c0,.75-.06,1.63-.16,2.65s-.29,2-.43,2.78a18.23,18.23,0,0,0,3.23,6.75c1.35,1.64,2.74,2.43,4.19,2.38l.37-.06a9.11,9.11,0,0,1,3.49.06q1.38.54.69,2.85a3.37,3.37,0,0,1-1.69,2.25,8.92,8.92,0,0,1-3.44.07,8.07,8.07,0,0,1-5.57-2.58,16.92,16.92,0,0,1-3.65-5.3,21.81,21.81,0,0,1-4,5.5,7.46,7.46,0,0,1-4.82,2.38l-.69.06a6.63,6.63,0,0,1-3,.2c-.67-.26-1.18-1.08-1.53-2.45-.53-1.94-.36-3.11.53-3.5a5.89,5.89,0,0,1,2.86.26l1.05.26a4.06,4.06,0,0,0,2.71-1.25,12.63,12.63,0,0,0,2.7-3.45,20,20,0,0,0,2-5,17.46,17.46,0,0,0,.37-5.82ZM625.66,96.22a7.36,7.36,0,0,1-3-.07l-.84-.13a8.2,8.2,0,0,0-1.59-.2H618.4q-.21,8.94-.1,19.66,0,8.8.37,18.87a16.52,16.52,0,0,1-.21,4.63,3.24,3.24,0,0,1-2.23,2.12c-1.41.31-2.29-.07-2.64-1.12a16.59,16.59,0,0,1-.22-4.44l.11-1.19q.48-11.71.58-24.3.16-13-.1-25.28a10.26,10.26,0,0,0-.37-2.32,2.08,2.08,0,0,0-1.06-1.39,2.62,2.62,0,0,1-1.8-2.85c.14-1.23,1-1.85,2.49-1.85a6.47,6.47,0,0,1,3.91,1.32,3.88,3.88,0,0,1,1.91,3,3.07,3.07,0,0,1-.11.79,3.44,3.44,0,0,1-.1.73,7,7,0,0,0-.21.79,10.93,10.93,0,0,0-.06,1.2l-.16,4.3v2.38c.71-.09,1.36-.15,2-.2.89-.08,1.65-.15,2.28-.19l1.17-.27a5.55,5.55,0,0,1,2.91-.13c.88.35,1.06,1.5.53,3.44-.39,1.46-.92,2.34-1.59,2.65m-18.27,7.61a3.45,3.45,0,0,1-2.28,2c-1.52.49-2.45.18-2.8-.92a17.6,17.6,0,0,1-.11-4.77l.11-.79c.21-2.26.37-4.79.47-7.62s.13-5,.06-6.29a2,2,0,0,0-.27-1,.94.94,0,0,0-.58-.13c-.39,0-.94,0-1.64.06l-1.91.2-1.32.2-1.06.13a5.46,5.46,0,0,1-2.7-.06c-.61-.27-1.1-1.08-1.49-2.45-.56-2-.32-3.2.74-3.51a6.47,6.47,0,0,1,3.23.46l.59.2a16.62,16.62,0,0,0,3.17.4,25.13,25.13,0,0,0,3.18-.2l.9-.2a3.45,3.45,0,0,1,1.22-.13,3.05,3.05,0,0,1,1.48.93,3.68,3.68,0,0,1,1.22,1.72,3.24,3.24,0,0,1-.1,1.59l-.22,1.39c-.07,2.42-.1,4.9-.1,7.41q0,4.36.26,6.89a11.58,11.58,0,0,1-.05,4.43m-16.26,0a3.45,3.45,0,0,1-2.28,2c-1.51.49-2.45.18-2.8-.92a18,18,0,0,1-.11-4.77l.11-.79c.17-2.17.33-4.7.47-7.62s.13-5,.06-6.29a2,2,0,0,0-.27-1,.92.92,0,0,0-.58-.13q-.59,0-1.38.06c-.28,0-.76.12-1.43.2l-1.27.2-1.06.13a5.47,5.47,0,0,1-2.7-.06c-.6-.27-1.09-1.08-1.48-2.45-.53-2-.3-3.13.69-3.44a6.28,6.28,0,0,1,3.12.39l.74.2a13.75,13.75,0,0,0,2.7.4,22,22,0,0,0,2.86-.2l.9-.2a3.45,3.45,0,0,1,1.22-.13,3,3,0,0,1,1.48.93,3.68,3.68,0,0,1,1.22,1.72,3.24,3.24,0,0,1-.1,1.59L591,85.1c-.08,2.42-.11,4.9-.11,7.41q0,4.36.26,6.89a13,13,0,0,1,0,4.43m-24.91,36.28a8.87,8.87,0,0,1-3.44.06c-2.15-.08-5.08-.13-8.79-.13-4.66,0-7.73.05-9.22.13l-1.37.2a2.63,2.63,0,0,1-1.33.14,3.87,3.87,0,0,1-1.43-1.53,4.6,4.6,0,0,1-.74-1.78,6.49,6.49,0,0,1,.06-1.39l.15-1.13c.11-1.76.2-3.6.27-5.49q.11-3.91,0-7.09a17,17,0,0,0-.37-2.38,1.92,1.92,0,0,0-1-1.33c-1.41-.57-2-1.45-1.85-2.64s1-1.79,2.49-1.79a6.32,6.32,0,0,1,3.76,1.26,3.64,3.64,0,0,1,1.85,2.84,3.13,3.13,0,0,1-.1.8,3.58,3.58,0,0,1-.11.73,6.44,6.44,0,0,0-.21.79,10,10,0,0,0-.06,1.13q-.1,3.43-.15,7.34v5.23a1.91,1.91,0,0,0,.21,1,1.19,1.19,0,0,0,.95.46q1.28.06,8-.13t9-.33l.53-.07a10.91,10.91,0,0,1,3.87.07c1,.35,1.21,1.3.79,2.84a3.08,3.08,0,0,1-1.75,2.19m9-44.29a7.17,7.17,0,0,1-3-.07l-.85-.13a8,8,0,0,0-1.59-.2H568q0,4.31,0,7.09c0,2.25.11,3.88.22,4.9a12.43,12.43,0,0,1-.11,4.5,3.44,3.44,0,0,1-2.28,2.12c-1.55.44-2.5.11-2.86-1a17.15,17.15,0,0,1,0-4.76l.11-.86q.26-3.45.47-9.93.21-7.76,0-12.85a10.49,10.49,0,0,0-.37-2.31,2.31,2.31,0,0,0-1.06-1.46,2.43,2.43,0,0,1-1.8-2.71c.14-1.2,1-1.79,2.49-1.79a6.78,6.78,0,0,1,3.76,1.32c1.38.93,2.07,1.92,2.07,3a3.32,3.32,0,0,1-.11.86,3,3,0,0,1-.11.73c-.07.31-.12.57-.15.79a4.32,4.32,0,0,0-.11,1.06L568,88.21v2.45c.71-.09,1.36-.16,2-.2.88-.09,1.64-.16,2.28-.2l1.22-.26a5.4,5.4,0,0,1,2.86-.14c.88.36,1.05,1.48.53,3.38q-.59,2.19-1.59,2.58m-22.41,8.74a9.48,9.48,0,0,1-3.44.13c-1.76-.09-4-.15-6.56-.2-3.08,0-5.39,0-6.94.14l-1.38.19a2.49,2.49,0,0,1-1.32.14,3.8,3.8,0,0,1-1.43-1.53,4.39,4.39,0,0,1-.74-1.78,6.35,6.35,0,0,1,0-1.39l.16-1.13q.15-2.91.26-6.29a55,55,0,0,0-.1-6.29,13.4,13.4,0,0,0-.32-2.38,1.87,1.87,0,0,0-.95-1.32c-1.42-.58-2-1.46-1.86-2.65s1-1.79,2.49-1.79a6.48,6.48,0,0,1,2.33.4,7.17,7.17,0,0,1,2,1.26,4.19,4.19,0,0,0,.58.26,1.88,1.88,0,0,0,.74.13c.75,0,2.48,0,5.19-.13q4.29-.14,6.62-.26l.06-.07a13.19,13.19,0,0,1,4.23.07c1,.3,1.31,1.23.85,2.78a3,3,0,0,1-1.64,2.25,9.79,9.79,0,0,1-3.5.13q-2.32-.2-6.67-.27h-4.87a.82.82,0,0,0-.53.14,1,1,0,0,0-.21.72c-.07,1.46-.13,3.67-.16,6.62V99a.9.9,0,0,0,.26.73,1.2,1.2,0,0,0,.85.26c1.17.05,3.16,0,6-.13q3.81-.14,6.56-.33l.32-.07a10.63,10.63,0,0,1,4,.13c.95.36,1.21,1.31.79,2.85a2.91,2.91,0,0,1-1.7,2.12m-41.16,26.61c0-1.5-.07-2.49-.11-3a.87.87,0,0,0-.32-.66,1.72,1.72,0,0,0-.47-.07c-1.41,0-4.26-.08-8.53-.13s-6.72,0-7.15.07a.81.81,0,0,0-.74.33.8.8,0,0,0-.16.53l-.05,1.12v3c0,1.19,0,1.9.05,2.12a1.19,1.19,0,0,0,.16.73.62.62,0,0,0,.48.26q1.8.08,7.94,0t7.95-.13a.66.66,0,0,0,.58-.33,1.2,1.2,0,0,0,.26-.6,30.44,30.44,0,0,0,.11-3.24m4.71-12.31c0,.18-.09.42-.16.73a4.28,4.28,0,0,0-.1.79,10,10,0,0,0-.06,1.13,60.92,60.92,0,0,0-.26,6.22q-.06,4.7.11,7l.1,1a5.07,5.07,0,0,1,.16,1.46,4.76,4.76,0,0,1-.79,1.85,3.87,3.87,0,0,1-1.43,1.53,2.79,2.79,0,0,1-1.38-.14l-1.33-.2c-2.5-.08-5.31-.13-8.42-.13-4.16,0-7,.05-8.52.13l-1.38.2a2.56,2.56,0,0,1-1.32.14,4.07,4.07,0,0,1-1.38-1.53,4.6,4.6,0,0,1-.74-1.78,6.35,6.35,0,0,1,0-1.39l.16-1.13c.11-1.68.19-3.68.27-6,.07-2.83.05-5-.06-6.56l-.05-.26a7.67,7.67,0,0,0-.42-1.39,1.61,1.61,0,0,0-.9-1.06c-1.38-.58-2-1.48-1.75-2.72s1-1.78,2.43-1.78a6.51,6.51,0,0,1,3.76,1.25,3.69,3.69,0,0,1,1.86,2.92,10.62,10.62,0,0,1-.16,1.65l-.27,1.39-.05.4v.07l.16.19h16.79s.07,0,.1-.13a.19.19,0,0,0,.06-.13h.05a11.6,11.6,0,0,0-.32-2.91,1.87,1.87,0,0,0-.95-1.2,2.45,2.45,0,0,1-1.8-2.64c.17-1.19,1-1.79,2.43-1.79a6.28,6.28,0,0,1,3.76,1.26,3.51,3.51,0,0,1,1.8,2.84,5.37,5.37,0,0,1,0,.8m5.93-37.34a4.47,4.47,0,0,1-.1.8c-.07.31-.13.57-.16.79a4.8,4.8,0,0,0-.11,1.06q-.21,5.56-.16,13t.27,10.2a12.56,12.56,0,0,1-.11,4.5,3.43,3.43,0,0,1-2.27,2.12c-1.52.44-2.46.11-2.81-1a17.32,17.32,0,0,1-.11-4.7l.11-.92q.25-3.51.48-10.2.21-8,0-12.58a10.16,10.16,0,0,0-.38-2.31,2.22,2.22,0,0,0-1-1.46,2.5,2.5,0,0,1-1.85-2.71c.17-1.2,1-1.79,2.54-1.79a6.54,6.54,0,0,1,3.71,1.32c1.34.93,2,1.92,2,3a3.32,3.32,0,0,1-.11.86M490.69,84.9l-4.13.2-1,.06a10.73,10.73,0,0,1-3.6.07c-.67-.27-1.2-1.08-1.59-2.45-.53-1.76-.41-2.85.37-3.24a5,5,0,0,1,2.91,0l1.59.26a85.57,85.57,0,0,0,8.9.46q4.23-.06,8.1-.46a13.85,13.85,0,0,1,4.29.07q1.65.52.9,2.91A3,3,0,0,1,505.78,85a10,10,0,0,1-3.55.14l-5.4-.2-.11,1c0,.75-.05,1.63-.15,2.65s-.29,2-.43,2.78a18.23,18.23,0,0,0,3.23,6.75q2,2.46,4.19,2.38l.37-.06a9.11,9.11,0,0,1,3.49.06q1.38.54.69,2.85a3.37,3.37,0,0,1-1.69,2.25,9,9,0,0,1-3.45.07,8.07,8.07,0,0,1-5.56-2.58,16.92,16.92,0,0,1-3.65-5.3,21.59,21.59,0,0,1-4,5.5,7.42,7.42,0,0,1-4.82,2.38l-.68.06a6.63,6.63,0,0,1-3,.2c-.67-.26-1.18-1.08-1.54-2.45-.53-1.94-.35-3.11.53-3.5a5.88,5.88,0,0,1,2.86.26l1.06.26a4,4,0,0,0,2.7-1.25,12.26,12.26,0,0,0,2.7-3.45,19.26,19.26,0,0,0,2-5,17,17,0,0,0,.37-5.82Zm-32.38,31.84a9.86,9.86,0,0,1-3.49.13q-3.45-.25-9.22-.26-3.44,0-10,.13l-.8.07-.85.06a9.67,9.67,0,0,1-3.81.07c-.74-.27-1.31-1.1-1.69-2.52-.53-1.94-.34-3.11.58-3.51a6,6,0,0,1,3.07.2l1.32.27a32.75,32.75,0,0,0,3.34.26c1,.09,2.38.13,4.08.13l-.16-1.78a9.7,9.7,0,0,0-.32-2.39,1.92,1.92,0,0,0-1-1.39,3.81,3.81,0,0,1-1.28-.92,3.65,3.65,0,0,1-.58-1.13,9,9,0,0,1-3.76-4.1,14,14,0,0,1-1.11-5.83,15.32,15.32,0,0,1,.42-3.64,11.74,11.74,0,0,1,1.06-2.78,4.78,4.78,0,0,1-2.75-.26,3.6,3.6,0,0,1-1.27-2.32q-.79-2.66.42-3.24a6,6,0,0,1,3,.13l1.64.26c1.06.14,2.12.22,3.18.27s2.49.13,4,.13a6.67,6.67,0,0,0-.42-1.59,1.27,1.27,0,0,0-.69-.73,2.42,2.42,0,0,1-1.8-2.71c.17-1.19,1-1.79,2.49-1.79a6.53,6.53,0,0,1,3.81,1.26,3.64,3.64,0,0,1,1.85,2.91l-.15,1.33-.11,1.32c1.48,0,2.59-.09,3.34-.13.91-.09,1.71-.18,2.38-.27l.21-.06a14.82,14.82,0,0,1,4.4.13q1.53.52.84,2.91a3.54,3.54,0,0,1-1.32,2,5.86,5.86,0,0,1-2.75.46,15,15,0,0,1,1.05,2.78,13.5,13.5,0,0,1,.48,3.64,11.79,11.79,0,0,1-2.33,7.68q-2.59,3.18-7.78,3.58v.39a3.32,3.32,0,0,1-.11.86,4.59,4.59,0,0,1-.11.8,3.62,3.62,0,0,0-.1.79,4.8,4.8,0,0,0-.11,1.06,6.63,6.63,0,0,0-.1,1.26v1.26c1.69,0,3.4,0,5.13-.14,1.56-.08,3-.19,4.35-.33a13.15,13.15,0,0,1,4.29,0c1.13.4,1.46,1.42,1,3a3.44,3.44,0,0,1-1.8,2.25m16.05-20.52a7.36,7.36,0,0,1-3-.07l-.84-.13c-.53-.09-1-.15-1.49-.2h-2q-.21,8.94-.1,19.66,0,8.8.37,18.87a16.93,16.93,0,0,1-.21,4.63,3.24,3.24,0,0,1-2.23,2.12c-1.41.31-2.29-.07-2.65-1.12a17.21,17.21,0,0,1-.21-4.44l.11-1.19q.48-11.71.58-24.3.17-13-.11-25.28a9.72,9.72,0,0,0-.37-2.32,2,2,0,0,0-1.06-1.39,2.64,2.64,0,0,1-1.8-2.85c.14-1.23,1-1.85,2.49-1.85a6.5,6.5,0,0,1,3.92,1.32,3.88,3.88,0,0,1,1.91,3,3.07,3.07,0,0,1-.11.79,3.44,3.44,0,0,1-.1.73c-.11.35-.18.62-.22.79,0,.36-.05.76-.05,1.2l-.16,4.3v2.38l3.55-.33.69-.06,1.16-.27a5.58,5.58,0,0,1,2.92-.13c.88.35,1.06,1.5.53,3.44-.39,1.46-.92,2.34-1.59,2.65m-24.47-6.89a9.45,9.45,0,0,0-11.23,0,6.69,6.69,0,0,0-1.69,4.9,6.82,6.82,0,0,0,1.69,4.9,9.17,9.17,0,0,0,11.23,0,6.68,6.68,0,0,0,1.75-4.9,6.55,6.55,0,0,0-1.75-4.9M409.25,120c-1.66-1.81-4.14-2.71-7.46-2.71s-5.85.9-7.47,2.71q-2.22,2.46-2.22,7.09t2.22,7q2.43,2.72,7.47,2.71c3.32,0,5.8-.9,7.46-2.71a9.82,9.82,0,0,0,2.33-7c0-3.09-.77-5.45-2.33-7.09m3.5,17.35q-3.5,3.9-11,3.9t-11-3.9q-3.12-3.51-3.12-10.26t3.12-10.4q3.5-3.9,11-3.9t11,3.9q3.18,3.51,3.18,10.4t-3.18,10.26m8.63-55.81a4.47,4.47,0,0,1-.1.8,3.7,3.7,0,0,0-.11.79,4.8,4.8,0,0,0-.11,1.06q-.21,5.56-.15,13t.26,10.2a12.2,12.2,0,0,1-.11,4.5A3.23,3.23,0,0,1,419,114c-1.42.44-2.28.11-2.6-1a18.27,18.27,0,0,1-.05-4.9l.05-.66.37-7c-.67,0-1.62,0-2.86.07a13.71,13.71,0,0,0-2.49.2l-.95.06a8.63,8.63,0,0,1-3.34.13c-.67-.26-1.18-1.1-1.53-2.51-.5-1.94-.36-3.09.42-3.44a5.49,5.49,0,0,1,3,.2l1.64.33,6.25.33V94.63c0-1.37.05-2.36.05-3q.06-1.65,0-2.85l-5.51.14-1.11.13a8.59,8.59,0,0,1-3.23.06c-.64-.26-1.13-1.1-1.48-2.51-.5-1.9-.36-3.05.42-3.44a5.49,5.49,0,0,1,3,.2l1.64.33,3.55.2c1.3.08,2.19.13,2.64.13v-.47a7,7,0,0,0-.31-1.39,2.09,2.09,0,0,0-1-1.32,2.49,2.49,0,0,1-1.64-2.71,2,2,0,0,1,2.33-1.79,5.87,5.87,0,0,1,3.44,1.32,3.84,3.84,0,0,1,1.86,3,3.32,3.32,0,0,1-.11.86m-22.45,3.64a7.15,7.15,0,0,0-6-2.71,7.06,7.06,0,0,0-6,2.71,12,12,0,0,0-2,7.28,11.71,11.71,0,0,0,2,7.15,7,7,0,0,0,6,2.78,7.07,7.07,0,0,0,6-2.78A11.34,11.34,0,0,0,401,92.44a11.62,11.62,0,0,0-2.06-7.28M402.37,103q-3.08,3.91-9.43,3.91c-4.23,0-7.38-1.3-9.42-3.91-1.95-2.43-2.92-5.93-2.92-10.53s1-8.29,2.92-10.72,5.19-3.84,9.42-3.84,7.38,1.28,9.43,3.84,3,6,3,10.72-1,8.1-3,10.53m-38,38a8.87,8.87,0,0,1-3.44.06c-2.05-.08-5-.13-8.79-.13-4.56,0-7.59,0-9.11.07l-1.33.26a2.12,2.12,0,0,1-1.37.07c-.43-.13-.9-.64-1.43-1.52a6.25,6.25,0,0,1-1-2.45,4.15,4.15,0,0,1,.48-2.05,5.84,5.84,0,0,0,.16-1.13c0-.44,0-.86,0-1.26a7.68,7.68,0,0,0-.37-1.92,1.63,1.63,0,0,0-1-1.19c-1.42-.57-2-1.48-1.86-2.71s1-1.79,2.49-1.79a7,7,0,0,1,2.39.4,6.69,6.69,0,0,1,1.9,1.25,2,2,0,0,0,.53.27,1.69,1.69,0,0,0,.8.2c.63,0,3.15-.05,7.57-.13l8.47-.27a.81.81,0,0,0,.53-.26.71.71,0,0,0,.21-.47c0-.26.07-.61.11-1.06v-1.39a.83.83,0,0,0-.27-.72,1.18,1.18,0,0,0-.63-.14l-5.88.14-5.93.19c-2.19.09-3.94.2-5.24.33l-1,.07a5.24,5.24,0,0,1-2.7,0c-.6-.26-1.09-1.06-1.48-2.38-.53-1.9-.35-3,.53-3.38a5.2,5.2,0,0,1,2.86.2l1,.26,7.74.27a1.38,1.38,0,0,1-1-1.32,7.07,7.07,0,0,1,.11-2l.11-.66.42-3.71q-6.78,0-10.17.07l-4.08.13-.74.07a10,10,0,0,1-3.86.06c-.75-.26-1.29-1.1-1.65-2.51-.56-1.9-.37-3,.59-3.38a6.36,6.36,0,0,1,3.17.2l1.12.26q4.39.41,18.11.33,13-.06,17.21-.33a13.42,13.42,0,0,1,4.34,0c1.1.4,1.4,1.39.9,3a3.37,3.37,0,0,1-1.69,2.25,10.08,10.08,0,0,1-3.55.14c-1.17-.14-2.72-.22-4.66-.27h-10.7l.37,3.71v.06a6.08,6.08,0,0,1-.16,2.32,3.06,3.06,0,0,1-2.27,1.59h5.5c1.7,0,2.81,0,3.34-.07l.9-.13a3.79,3.79,0,0,1,1.27-.13,2.87,2.87,0,0,1,1.43.86,4.52,4.52,0,0,1,1.27,1.85,4.28,4.28,0,0,1-.16,1.66l-.21,1.26c-.1.75-.17,1.34-.21,1.78s-.05.86-.05,1.26a1.54,1.54,0,0,1,.63.93,3,3,0,0,1-.21,1.85,3.21,3.21,0,0,1-1.64,2.25,9.13,9.13,0,0,1-3.44.07q-2.34-.19-9.06-.27h-7.15a.78.78,0,0,0-.42.14.68.68,0,0,0-.16.46,9.94,9.94,0,0,0-.16,1.39v1.65a1.19,1.19,0,0,0,.11.6.55.55,0,0,0,.53.26c1.13.09,3.91.09,8.36,0s7.47-.26,9.06-.39l.16-.07a12.52,12.52,0,0,1,4.13.07c1,.31,1.27,1.26.85,2.84a3,3,0,0,1-1.7,2.19M358.71,84.7c-1.73-1.54-4.18-2.32-7.36-2.32s-5.66.78-7.36,2.32a7.48,7.48,0,0,0-2.33,5.83A7.32,7.32,0,0,0,344,96.22q2.55,2.39,7.36,2.38t7.36-2.38a7.14,7.14,0,0,0,2.44-5.69,7.43,7.43,0,0,0-2.44-5.83m3.5,14.83q-3.6,3.57-10.86,3.57t-10.91-3.57c-2.15-2.16-3.23-5.17-3.23-9s1.08-7,3.23-9.14q3.6-3.51,10.91-3.51t10.86,3.51q3.29,3.24,3.28,9.14c0,3.83-1.09,6.84-3.28,9m-41.7-18a3.44,3.44,0,0,1-.1.73c-.07.35-.13.62-.16.79a11.09,11.09,0,0,0-.05,1.2q-.33,12.7-.27,25.81,0,12.86.37,24.3a19.85,19.85,0,0,1-.21,4.63A3.23,3.23,0,0,1,318,141.1c-1.24.31-2,0-2.39-1.06a15.92,15.92,0,0,1-.21-4.3l.05-1.39q.38-9.33.53-19.07.17-10.38.11-20.19c-.64,0-1.48,0-2.54.07s-2.19.13-3.18.26l-1.17.07a6.7,6.7,0,0,1-3.07,0c-.63-.26-1.13-1.1-1.48-2.52-.5-1.89-.35-3,.42-3.44a5,5,0,0,1,2.92.07l1.64.33,3.86.26c1.1.09,2,.14,2.6.14l-.21-6a6.25,6.25,0,0,0-.27-2,2.08,2.08,0,0,0-1-1.32A2.71,2.71,0,0,1,313,78.21a2,2,0,0,1,2.33-1.85,5.77,5.77,0,0,1,3.61,1.32,4,4,0,0,1,1.69,3,3.07,3.07,0,0,1-.11.79M297.69,96.28q2.38,3.18,4.92,3l.59-.07a8.76,8.76,0,0,1,3.33.14c.89.35,1.1,1.28.64,2.78a3.16,3.16,0,0,1-1.7,2.25,9.48,9.48,0,0,1-3.44.13,9.31,9.31,0,0,1-6.25-3.11,22.48,22.48,0,0,1-3.86-6,23,23,0,0,1-4.13,6.23,8.57,8.57,0,0,1-5.46,2.91l-.9.13a5.46,5.46,0,0,1-2.75,0c-.6-.26-1.1-1.08-1.49-2.45-.53-1.85-.39-2.95.43-3.31a5.06,5.06,0,0,1,2.75.13l1.27.27q3.08.14,6-5a16.09,16.09,0,0,0,2.59-8.87,9.07,9.07,0,0,0-.31-2.38,1.73,1.73,0,0,0-1-1.32c-1.37-.58-2-1.46-1.8-2.65s1-1.79,2.49-1.79a6.59,6.59,0,0,1,3.82,1.26,3.52,3.52,0,0,1,1.85,2.85,3.07,3.07,0,0,1-.11.79,2.58,2.58,0,0,1-.1.66c-.07.36-.13.62-.16.8a9.93,9.93,0,0,0-.05,1.12,13,13,0,0,1-.22,2.25c-.1.71-.24,1.48-.42,2.32a24.25,24.25,0,0,0,3.39,6.88M255.82,81.52a3.58,3.58,0,0,1-.11.73c-.07.35-.12.62-.16.79,0,.36-.05.76-.05,1.2q-.31,12.7-.27,25.81,0,12.86.38,24.3a19.14,19.14,0,0,1-.22,4.63,3.18,3.18,0,0,1-2.06,2.12c-1.24.31-2,0-2.38-1.06a15.34,15.34,0,0,1-.22-4.3l.06-1.39q.36-9.33.53-19.07.15-10.38.1-20.19c-.63,0-1.48,0-2.54.07s-2.19.13-3.18.26l-1.16.07a6.68,6.68,0,0,1-3.07,0c-.64-.26-1.13-1.1-1.49-2.52-.49-1.89-.35-3,.43-3.44a4.92,4.92,0,0,1,2.91.07l1.64.33,3.87.26c1.09.09,2,.14,2.59.14l-.21-6a6.58,6.58,0,0,0-.26-2,2.09,2.09,0,0,0-1-1.32,2.7,2.7,0,0,1-1.64-2.85,2,2,0,0,1,2.33-1.85,5.76,5.76,0,0,1,3.6,1.32,4,4,0,0,1,1.69,3,3.06,3.06,0,0,1-.1.79M233,96.28q2.38,3.18,4.93,3l.58-.07a8.82,8.82,0,0,1,3.34.14c.88.35,1.09,1.28.63,2.78a3.18,3.18,0,0,1-1.69,2.25,9.56,9.56,0,0,1-3.45.13,9.29,9.29,0,0,1-6.24-3.11,22.25,22.25,0,0,1-3.87-6,22.77,22.77,0,0,1-4.13,6.23,8.57,8.57,0,0,1-5.46,2.91l-.9.13a5.47,5.47,0,0,1-2.75,0c-.6-.26-1.1-1.08-1.48-2.45-.53-1.85-.39-2.95.42-3.31a5.06,5.06,0,0,1,2.75.13l1.28.27c2,.09,4.06-1.57,6-5a16.2,16.2,0,0,0,2.6-8.87,9,9,0,0,0-.32-2.38,1.72,1.72,0,0,0-.95-1.32c-1.38-.58-2-1.46-1.8-2.65s1-1.79,2.49-1.79a6.53,6.53,0,0,1,3.81,1.26,3.52,3.52,0,0,1,1.85,2.85,3.06,3.06,0,0,1-.1.79,2.65,2.65,0,0,1-.11.66c-.07.36-.12.62-.16.8,0,.35,0,.72,0,1.12a12.91,12.91,0,0,1-.21,2.25c-.11.71-.25,1.48-.43,2.32A24.25,24.25,0,0,0,233,96.28M198.66,82.71a3.56,3.56,0,0,1-.11.67,6.93,6.93,0,0,0-.21.86,12.43,12.43,0,0,0-.05,1.25q-.33,12.72-.27,23.7t.43,22.31a16.79,16.79,0,0,1-.27,4.64,3.08,3.08,0,0,1-2.17,2.05q-2,.52-2.49-.93a15.55,15.55,0,0,1-.21-4.24l.05-1.52q.42-9.39.58-18,.1-9,0-18.41c-.6,0-1.16,0-1.69.07a5.75,5.75,0,0,0-1.38.26l-.9.07a19.42,19.42,0,0,1-2,.2,2,2,0,0,1-1.32-.53q-.48,5.63-3.39,8.6-3.08,3.12-8.74,3.12-6.36,0-9.43-3.91c-1.94-2.43-2.91-5.93-2.91-10.53s1-8.29,2.91-10.72,5.19-3.84,9.43-3.84c3.74,0,6.64,1,8.68,3s3.06,4.77,3.45,8.47a4.07,4.07,0,0,1,1.21.07c.32,0,.76.13,1.33.26l.9.27,3.86.4-.05-4.44a8.4,8.4,0,0,0-.32-2.32,2.28,2.28,0,0,0-1.06-1.39,2.51,2.51,0,0,1-1.74-2.84,2.11,2.11,0,0,1,2.43-1.92A6,6,0,0,1,197,78.81a3.88,3.88,0,0,1,1.8,3,3.79,3.79,0,0,1-.1.86m9-1.12a4.9,4.9,0,0,1-.11.73,6.34,6.34,0,0,0-.21.79c0,.35-.05.75-.05,1.19q-.37,12.39-.32,25.75,0,12.51.43,24.3a17,17,0,0,1-.27,4.63A3.22,3.22,0,0,1,205,141.1c-1.31.31-2.12,0-2.44-1.06a16.69,16.69,0,0,1-.21-4.37l.05-1.32q.48-11.79.59-24.3.11-13.1-.16-25.28a8.73,8.73,0,0,0-.32-2.32,2,2,0,0,0-.95-1.39,2.71,2.71,0,0,1-1.8-2.85c.14-1.23.95-1.85,2.43-1.85a6.11,6.11,0,0,1,3.76,1.32,3.89,3.89,0,0,1,1.86,3,4,4,0,0,1-.11.86m-27.17,3.57a7.15,7.15,0,0,0-6-2.71,7.06,7.06,0,0,0-6,2.71,12.08,12.08,0,0,0-2,7.28,11.78,11.78,0,0,0,2,7.15,7,7,0,0,0,6,2.78,7.07,7.07,0,0,0,6-2.78,11.28,11.28,0,0,0,2.07-7.15,11.56,11.56,0,0,0-2.07-7.28M142.82,120q-2.49-2.72-7.47-2.71T127.89,120q-2.23,2.46-2.23,7.09t2.23,7q2.43,2.72,7.46,2.71t7.47-2.71a9.87,9.87,0,0,0,2.33-7q0-4.63-2.33-7.09m3.5,17.35q-3.49,3.9-11,3.9t-11-3.9q-3.12-3.51-3.13-10.26t3.13-10.4q3.5-3.9,11-3.9t11,3.9q3.18,3.51,3.17,10.4t-3.17,10.26M155,81.52a4.71,4.71,0,0,1-.11.8,3.62,3.62,0,0,0-.1.79,4.8,4.8,0,0,0-.11,1.06q-.21,5.56-.16,13t.27,10.2a12.43,12.43,0,0,1-.11,4.5,3.24,3.24,0,0,1-2.12,2.12c-1.41.44-2.27.11-2.59-1a18.27,18.27,0,0,1,0-4.9l0-.66.37-7c-.67,0-1.63,0-2.86.07a13.49,13.49,0,0,0-2.49.2l-1.75.19-1.43.2-.16,1a3.15,3.15,0,0,1-1.69,2.25,9.49,9.49,0,0,1-3.44.13,9.29,9.29,0,0,1-6.25-3.11,22.49,22.49,0,0,1-3.87-6,22.55,22.55,0,0,1-4.13,6.23,8.55,8.55,0,0,1-5.45,2.91l-.9.13a5.5,5.5,0,0,1-2.76,0c-.6-.26-1.09-1.08-1.48-2.45-.53-1.85-.39-2.95.42-3.31a5.1,5.1,0,0,1,2.76.13l1.27.27c2,.09,4.06-1.57,6-5a16.11,16.11,0,0,0,2.6-8.87,9,9,0,0,0-.32-2.38,1.72,1.72,0,0,0-1-1.32c-1.38-.58-2-1.46-1.8-2.65s1-1.79,2.49-1.79a6.53,6.53,0,0,1,3.81,1.26,3.5,3.5,0,0,1,1.85,2.85,3.06,3.06,0,0,1-.1.79,2.65,2.65,0,0,1-.11.66c-.07.36-.12.62-.16.8,0,.35,0,.72,0,1.12a12.91,12.91,0,0,1-.21,2.25c-.11.71-.25,1.48-.43,2.32a24.25,24.25,0,0,0,3.39,6.88q2.38,3.18,4.93,3l1.64-.2h.53l-.11-.66c-.49-1.94-.35-3.09.43-3.44a5.45,5.45,0,0,1,3,.2l1.65.33,6.24.33V94.63c0-1.37.06-2.36.06-3q0-1.65,0-2.85l-5.51.14-1.11.13a8.59,8.59,0,0,1-3.23.06c-.64-.26-1.13-1.1-1.49-2.51-.49-1.9-.35-3.05.43-3.44a5.45,5.45,0,0,1,3,.2l1.65.33,3.54.2c1.31.08,2.19.13,2.65.13v-.47a7,7,0,0,0-.32-1.39,2.12,2.12,0,0,0-1-1.32,2.48,2.48,0,0,1-1.64-2.71c.18-1.2.95-1.79,2.33-1.79a5.89,5.89,0,0,1,3.44,1.32,3.84,3.84,0,0,1,1.86,3,3.32,3.32,0,0,1-.11.86m-47.89,14.7a7.36,7.36,0,0,1-3-.07l-.85-.13a8,8,0,0,0-1.58-.2H99.8q-.21,8.94-.1,19.66,0,8.8.37,18.87a16.41,16.41,0,0,1-.22,4.63,3.2,3.2,0,0,1-2.22,2.12c-1.41.31-2.29-.07-2.65-1.12a17.21,17.21,0,0,1-.21-4.44l.11-1.19q.47-11.71.58-24.3.17-13-.11-25.28A9.72,9.72,0,0,0,95,82.45a2,2,0,0,0-1.06-1.39,2.64,2.64,0,0,1-1.8-2.85c.14-1.23,1-1.85,2.49-1.85a6.5,6.5,0,0,1,3.92,1.32,3.88,3.88,0,0,1,1.91,3,3.07,3.07,0,0,1-.11.79,3.44,3.44,0,0,1-.1.73c-.11.35-.18.62-.22.79,0,.36-.05.76-.05,1.2l-.16,4.3v2.38c.71-.09,1.36-.15,2-.2.88-.08,1.64-.15,2.28-.19l1.16-.27a5.58,5.58,0,0,1,2.92-.13c.88.35,1.06,1.5.53,3.44-.39,1.46-.92,2.34-1.59,2.65m-22.4,9.86a9.32,9.32,0,0,1-3.45.13c-1.69-.08-3.88-.15-6.56-.19q-4.56-.08-6.94.06l-1.38.27a2.53,2.53,0,0,1-1.32.13A3.75,3.75,0,0,1,63.58,105a5.25,5.25,0,0,1-.9-2.39,5.82,5.82,0,0,1,.37-2,9.29,9.29,0,0,0,.21-2.25c0-.79,0-1.46,0-2A13.13,13.13,0,0,0,62.89,94a1.94,1.94,0,0,0-1-1.39c-1.42-.58-2-1.46-1.86-2.65s1-1.79,2.49-1.79a6,6,0,0,1,2.33.47,7,7,0,0,1,2,1.19,1.06,1.06,0,0,0,.53.26,2.06,2.06,0,0,0,.8.13c.63,0,2.41,0,5.34-.13,2.76-.09,4.86-.17,6.31-.26a.72.72,0,0,0,.58-.2,1.22,1.22,0,0,0,.26-.53l.06-4.64a.79.79,0,0,0-.22-.52,1,1,0,0,0-.63-.14c-2.22,0-4.31,0-6.25,0s-4.15.25-6.51.47l-1,.06a5.24,5.24,0,0,1-2.7,0c-.6-.26-1.09-1.08-1.48-2.45-.53-1.85-.37-2.95.48-3.31a5,5,0,0,1,2.75.14l1.16.26a65.38,65.38,0,0,0,8.58.4c2,0,3.8,0,5.56-.13l1-.2a4.23,4.23,0,0,1,1.22-.07,3.2,3.2,0,0,1,1.38.79,4.52,4.52,0,0,1,1.27,1.92,4.48,4.48,0,0,1-.16,1.66L85,84.57c-.11,1.41-.18,2.56-.22,3.44,0,.71,0,1.32,0,1.85a2,2,0,0,1,.69.86,3.46,3.46,0,0,1-.26,1.86,3.26,3.26,0,0,1-1.65,2.31,8.94,8.94,0,0,1-3.39.14c-1.55-.14-3.83-.22-6.83-.27H68.24a.58.58,0,0,0-.43.13.94.94,0,0,0-.1.53l-.21,5a1.08,1.08,0,0,0,.16.67c.1.17.37.28.79.33a54.92,54.92,0,0,0,5.88-.07c2.68-.09,5-.2,6.88-.33l.32-.07a10.32,10.32,0,0,1,4,.14c1,.35,1.21,1.3.79,2.84a2.9,2.9,0,0,1-1.69,2.12m-37.15,34a8.87,8.87,0,0,1-3.44.06c-2-.08-5-.13-8.79-.13q-6.83-.06-9.11.07l-1.38.26a2.56,2.56,0,0,1-1.32.14A3.87,3.87,0,0,1,22,139a4.6,4.6,0,0,1-.74-1.78,7.65,7.65,0,0,1,.05-1.53l.16-1.12c.07-.58.12-1.24.16-2s0-1.28,0-1.72a13.81,13.81,0,0,0-.37-2.32,2,2,0,0,0-1-1.39c-1.41-.57-2-1.45-1.85-2.64s1-1.79,2.48-1.79a6.39,6.39,0,0,1,2.39.46,8.19,8.19,0,0,1,1.9,1.26,1.83,1.83,0,0,0,.53.2,2.36,2.36,0,0,0,.8.13q.9.06,7.57-.07l8.48-.26a.83.83,0,0,0,.58-.2,2.25,2.25,0,0,0,.26-.6L43.6,120c0-.3-.11-.48-.22-.53a1.09,1.09,0,0,0-.63-.13q-3.7-.06-8.48,0c-3.6.09-6.49.24-8.68.47l-.95.06a5.22,5.22,0,0,1-2.7,0c-.61-.26-1.1-1.08-1.49-2.45-.53-1.85-.37-3,.48-3.37a6,6,0,0,1,2.81.19l1.11.27c2.61.26,6.21.4,10.8.4,3.5,0,6.07,0,7.73-.14l1-.19a4.21,4.21,0,0,1,1.22-.07,3.12,3.12,0,0,1,1.37.79,4.56,4.56,0,0,1,1.28,1.92,4.48,4.48,0,0,1-.16,1.66l-.21,1.26c-.11.92-.18,1.76-.22,2.51s-.05,1.22-.05,1.79a1.82,1.82,0,0,1,.69.93,3.18,3.18,0,0,1-.27,1.78,3.25,3.25,0,0,1-1.64,2.32,9.48,9.48,0,0,1-3.44.13c-1.55-.13-4.54-.22-9-.26H26.7a.51.51,0,0,0-.42.13.9.9,0,0,0-.11.53L26,134.41a1.69,1.69,0,0,0,.11.73c.1.18.37.29.79.33q1.48.08,8.11-.06c4.37-.13,7.39-.25,9-.33l.48-.07a11.28,11.28,0,0,1,3.92.07c.92.35,1.16,1.3.74,2.84a3,3,0,0,1-1.7,2.19m9.22-38.2a6.31,6.31,0,0,1-2.81-.13l-.69-.07a7.22,7.22,0,0,0-1.21-.2h-2.6c0,1,0,2.06,0,3.25,0,.66,0,1.45.06,2.38l0,.27a13.93,13.93,0,0,1,0,4.5A3.43,3.43,0,0,1,47.41,114c-1.41.44-2.28.08-2.6-1.06a18.1,18.1,0,0,1-.05-4.9l.05-.66q.27-3.45.43-9.87.21-7.55,0-12.18a19.35,19.35,0,0,0-.32-3,2.14,2.14,0,0,0-.9-1.52,2.49,2.49,0,0,1-1.7-2.71c.15-1.2.9-1.79,2.28-1.79a6.13,6.13,0,0,1,3.5,1.32,3.82,3.82,0,0,1,1.9,3,3.13,3.13,0,0,1-.1.8,3.5,3.5,0,0,1-.11.72c-.07.4-.12.73-.16,1a11.1,11.1,0,0,0-.1,1.59c.24,0,.83,0,1.74-.14l2.76-.2.95-.26a4.32,4.32,0,0,1,2.7-.26c.85.35,1,1.52.53,3.5-.39,1.37-.88,2.19-1.48,2.45a5.22,5.22,0,0,1-2.7,0l-.8-.13L52,89.6h-2.6l-.05,2.18v2.45c0,.93,0,1.77.05,2.52,1.09,0,2-.11,2.75-.2l1.86-.2,1.11-.26a4.48,4.48,0,0,1,2.6-.14c.77.36.93,1.48.47,3.38-.39,1.46-.88,2.32-1.48,2.58M29.61,85.16a7.13,7.13,0,0,0-6-2.71,6.91,6.91,0,0,0-5.93,2.71,12,12,0,0,0-2,7.28,11.71,11.71,0,0,0,2,7.15,6.92,6.92,0,0,0,5.93,2.78,7.05,7.05,0,0,0,6-2.78,11.28,11.28,0,0,0,2.07-7.15,11.56,11.56,0,0,0-2.07-7.28M33.11,103q-3.12,3.91-9.48,3.91T14.2,103c-1.94-2.43-2.91-5.93-2.91-10.53s1-8.29,2.91-10.72,5.19-3.84,9.43-3.84,7.4,1.28,9.48,3.84S36,87.72,36,92.44s-1,8.15-2.91,10.53"/><path class="cls-1" d="M530.28,20.26a7.55,7.55,0,0,1-3-.07l-.85-.13a7.24,7.24,0,0,0-1.58-.2H523q-.21,8.94-.1,19.66,0,8.81.37,18.87a16.41,16.41,0,0,1-.22,4.63,3.22,3.22,0,0,1-2.22,2.12c-1.41.31-2.3-.07-2.65-1.13a17.08,17.08,0,0,1-.21-4.43l.11-1.19q.46-11.73.58-24.3.15-13-.11-25.29a9.71,9.71,0,0,0-.37-2.31,2,2,0,0,0-1.06-1.39,2.65,2.65,0,0,1-1.8-2.85c.14-1.23,1-1.85,2.49-1.85a6.5,6.5,0,0,1,3.92,1.32,3.86,3.86,0,0,1,1.91,3.05,3.07,3.07,0,0,1-.11.79,3.44,3.44,0,0,1-.1.73c-.11.35-.18.62-.22.79,0,.36-.05.75-.05,1.2l-.16,4.3V15c.71-.09,1.36-.15,2-.2.88-.09,1.64-.15,2.28-.2l1.16-.26a5.58,5.58,0,0,1,2.92-.13c.88.35,1.06,1.5.53,3.44-.39,1.46-.92,2.34-1.59,2.65M507.93,28.6a9.49,9.49,0,0,1-3.44.13c-1.77-.09-4-.15-6.62-.2q-4.62-.06-6.94.13l-1.38.2a2.45,2.45,0,0,1-1.32.13,3.69,3.69,0,0,1-1.43-1.52,4.43,4.43,0,0,1-.74-1.79,6.37,6.37,0,0,1,.05-1.39l.16-1.12c.1-1.77.19-3.6.26-5.49q.11-3.91-.1-7.09a13.4,13.4,0,0,0-.32-2.38,1.87,1.87,0,0,0-.95-1.32c-1.42-.58-2-1.46-1.86-2.65s1-1.79,2.49-1.79a6.45,6.45,0,0,1,3.76,1.26,3.51,3.51,0,0,1,1.8,2.84,4.2,4.2,0,0,1-.1.93,3.58,3.58,0,0,1-.11.73l-.16.73c0,.31-.05.66-.05,1.06-.07,2.29-.13,4.74-.16,7.34v5.3a1.87,1.87,0,0,0,.21,1,1.34,1.34,0,0,0,.95.4c.82,0,2.71,0,5.67-.13q4.18-.13,6.89-.33l.31-.07a10.38,10.38,0,0,1,4,.13c.95.36,1.22,1.3.79,2.85a2.92,2.92,0,0,1-1.69,2.12m-28.09-8.34a7.51,7.51,0,0,1-3-.07l-.85-.13a7.26,7.26,0,0,0-1.59-.2h-1.85q-.21,8.94-.11,19.66.06,8.81.37,18.87a16.14,16.14,0,0,1-.21,4.63,3.26,3.26,0,0,1-2.22,2.12c-1.42.31-2.3-.07-2.65-1.13a17.08,17.08,0,0,1-.21-4.43l.1-1.19q.48-11.73.58-24.3.17-13-.1-25.29a10.25,10.25,0,0,0-.37-2.31,2,2,0,0,0-1.06-1.39c-1.38-.67-2-1.61-1.8-2.85S465.88.4,467.4.4a6.5,6.5,0,0,1,3.92,1.32,3.85,3.85,0,0,1,1.9,3.05,3.06,3.06,0,0,1-.1.79,3.58,3.58,0,0,1-.11.73c-.1.35-.18.62-.21.79a11,11,0,0,0-.05,1.2l-.16,4.3V15c.7-.09,1.36-.15,2-.2.88-.09,1.64-.15,2.27-.2L478,14.3a5.54,5.54,0,0,1,2.91-.13c.88.35,1.06,1.5.53,3.44-.39,1.46-.92,2.34-1.59,2.65m-35.32-15a1.46,1.46,0,0,0-.74-.73A2.42,2.42,0,0,1,442,1.79C442.21.6,443,0,444.52,0a6.53,6.53,0,0,1,3.81,1.26,3.67,3.67,0,0,1,1.8,2.91L450,5.49l-.1,1.33c1.27,0,2.38,0,3.33-.13s1.63-.11,2.44-.2V6.42a14.75,14.75,0,0,1,4.5.07c1.1.35,1.41,1.34,1,3a3.4,3.4,0,0,1-1.38,2,7.64,7.64,0,0,1-2.91.4A13,13,0,0,1,458,15a16.59,16.59,0,0,1,.48,4.17q0,5.76-2.7,8.8-2.91,3.38-9,3.38T437.85,28q-2.66-3-2.65-8.8a18.19,18.19,0,0,1,.47-4.17,16.46,16.46,0,0,1,1.12-3.11,4.93,4.93,0,0,1-2.81-.27,3.76,3.76,0,0,1-1.32-2.25c-.53-1.76-.39-2.85.42-3.24a5.21,5.21,0,0,1,3,0l1.74.26q1.54.2,3.18.27c1.13.09,2.45.13,4,.13a5.24,5.24,0,0,0-.42-1.59m7.89,8.54a7.14,7.14,0,0,0-5.61-2.18,7,7,0,0,0-5.62,2.18,8.08,8.08,0,0,0-1.69,5.43,8.32,8.32,0,0,0,1.69,5.56,7.09,7.09,0,0,0,5.62,2.12,7.17,7.17,0,0,0,5.61-2.12,8.13,8.13,0,0,0,1.75-5.56,7.9,7.9,0,0,0-1.75-5.43M413.82,42.43a8,8,0,0,1-3,0l-1.32-.13Q402.32,42,395,42q-4.61,0-14.62.2l-3.86.07-.85.07a11.89,11.89,0,0,1-3.81.06q-1.06-.39-1.59-2.31c-.57-1.77-.39-2.83.53-3.18a7.29,7.29,0,0,1,3.12.2l1.22.26c.74.05,2.49.11,5.24.2,1.56,0,4,.09,7.21.13l3.44.07L391,36.08a9,9,0,0,0-.37-2.19,1.84,1.84,0,0,0-1-1.25c-1.37-.58-2-1.44-1.8-2.59s1-1.72,2.49-1.72a6.82,6.82,0,0,1,3.81,1.19A3.48,3.48,0,0,1,396,32.3a3.15,3.15,0,0,1-.11.8,2.58,2.58,0,0,1-.1.66,6.9,6.9,0,0,0-.16.79,8.43,8.43,0,0,0-.06,1.06l-.05,2.19,2.23-.07c3,0,5.27-.09,6.72-.13,2.54,0,4.2-.11,5-.2l1.75-.2a10.2,10.2,0,0,1,3.86-.06c1,.39,1.2,1.41.64,3a3.34,3.34,0,0,1-1.91,2.25m-7.36-16.68a3.43,3.43,0,0,1-2.22,2.05c-1.49.49-2.41.13-2.76-1.06a18,18,0,0,1,0-5l.06-.4q.25-3.11.42-6.49c.1-2.11.16-3.72.16-4.83A2.9,2.9,0,0,0,402,8.87a.93.93,0,0,0-.9-.4H393c-4,.09-7,.23-9.06.4l-1,.13a5.24,5.24,0,0,1-2.64-.06c-.6-.27-1.06-1.08-1.38-2.45-.53-1.86-.37-3,.48-3.31a4.89,4.89,0,0,1,2.8.2l1.06.26Q387.08,4,394,4c3.29,0,6-.11,8.05-.2l.48-.13a1.73,1.73,0,0,0,.48-.13,1.59,1.59,0,0,1,1-.14,3.55,3.55,0,0,1,1.54,1,3.92,3.92,0,0,1,1.22,1.73,3.55,3.55,0,0,1-.16,1.52l-.21,1.46q-.11,3.63-.06,6.35a57.12,57.12,0,0,0,.27,5.89,12.17,12.17,0,0,1-.16,4.37M362.22,5.56a3.44,3.44,0,0,1-.1.73,7,7,0,0,0-.21.79,10.8,10.8,0,0,0-.06,1.2q-.32,12.71-.26,25.55,0,12.51.37,24.56a16.93,16.93,0,0,1-.21,4.63,3.26,3.26,0,0,1-2.23,2.12c-1.34.31-2.19,0-2.54-1a13.33,13.33,0,0,1-.26-4.23l0-1.52q.48-12.26.63-24.56.11-12.78-.16-25a9.33,9.33,0,0,0-.31-2.31,1.88,1.88,0,0,0-1-1.39,2.71,2.71,0,0,1-1.85-2.85c.17-1.23,1-1.85,2.54-1.85a6.6,6.6,0,0,1,3.87,1.32,3.89,3.89,0,0,1,1.85,3.05,3.07,3.07,0,0,1-.11.79m-17.9,24.56a9.63,9.63,0,0,1-3.44.13c-1.69-.09-3.9-.15-6.62-.2q-4.56-.06-6.94.07l-1.37.26a2.49,2.49,0,0,1-1.33.14A4.07,4.07,0,0,1,323.24,29a5.74,5.74,0,0,1-.84-2.18,6.64,6.64,0,0,1,.21-1.85l.11-.4q.11-.93.15-2.25a16.06,16.06,0,0,0,0-2A13.47,13.47,0,0,0,322.5,18a1.94,1.94,0,0,0-.95-1.39c-1.41-.58-2-1.46-1.85-2.65s1-1.79,2.49-1.79a6.58,6.58,0,0,1,2.38.46,9.54,9.54,0,0,1,1.91,1.2,3.7,3.7,0,0,0,.58.26,2,2,0,0,0,.79.13c.6,0,2.39,0,5.35-.13q4.08-.13,6.3-.26c.29,0,.46-.07.53-.2a1,1,0,0,0,.27-.53l.05-4.64a1.14,1.14,0,0,0-.16-.53,1.11,1.11,0,0,0-.63-.13q-3.35-.06-6.31,0t-6.51.47l-.9.06a5.22,5.22,0,0,1-2.7,0c-.6-.26-1.1-1.08-1.48-2.45-.53-1.85-.37-2.95.47-3.31a5.1,5.1,0,0,1,2.76.13l1.16.27a65.38,65.38,0,0,0,8.58.4c1.91,0,3.76,0,5.56-.14l1-.19A3.79,3.79,0,0,1,342.36,3a2.81,2.81,0,0,1,1.38.79A4.43,4.43,0,0,1,345,5.69a4.28,4.28,0,0,1-.16,1.66l-.21,1.26q-.11,1.13-.21,2.91V13.9a1.94,1.94,0,0,1,.69.86,3.6,3.6,0,0,1-.27,1.86,3.25,3.25,0,0,1-1.64,2.31,9.4,9.4,0,0,1-3.44.14c-1.56-.14-3.81-.23-6.78-.27h-5.08a.71.71,0,0,0-.48.13.93.93,0,0,0-.11.53l-.16,5a1.56,1.56,0,0,0,.11.67,1.21,1.21,0,0,0,.79.33,57.88,57.88,0,0,0,5.88-.07q4-.14,6.94-.33l.32-.07a10.27,10.27,0,0,1,4,.14c1,.35,1.22,1.3.8,2.84a3.1,3.1,0,0,1-1.7,2.12M313.06,42.83a9.92,9.92,0,0,1-3.5.13q-3.65-.33-16.84-.26-12.08,0-16.94.2l-1,.06a9.43,9.43,0,0,1-3.76.07c-.7-.27-1.25-1.1-1.64-2.52-.53-1.94-.35-3.11.53-3.51a6,6,0,0,1,3.07.2l1.38.27q4.61.47,18.06.46c8.75,0,14.46-.13,17.1-.4a13.05,13.05,0,0,1,4.29,0c1.13.4,1.47,1.42,1,3a3.44,3.44,0,0,1-1.8,2.25m-7.47-17.08a3.43,3.43,0,0,1-2.22,2.05c-1.48.49-2.4.13-2.76-1.06a18,18,0,0,1,0-5l.06-.4c.17-2.07.32-4.23.42-6.49s.16-3.72.16-4.83a2.73,2.73,0,0,0-.16-1.19.93.93,0,0,0-.9-.4h-8.1c-4,.09-7,.23-9.06.4L282,9a5.28,5.28,0,0,1-2.65-.06c-.6-.27-1.06-1.08-1.38-2.45-.53-1.86-.37-3,.48-3.31a4.89,4.89,0,0,1,2.8.2l1.06.26q3.87.4,10.75.4c3.29,0,6-.11,8.05-.2l.48-.13a1.57,1.57,0,0,0,.48-.13,1.61,1.61,0,0,1,1.06-.14,3.58,3.58,0,0,1,1.53,1,3.92,3.92,0,0,1,1.22,1.73,3.55,3.55,0,0,1-.16,1.52l-.21,1.46q-.1,3.63-.05,6.35a57.34,57.34,0,0,0,.26,5.89,12.17,12.17,0,0,1-.16,4.37M234.17,57.13a8.75,8.75,0,0,0,5.67,2.38l.58-.13a8.34,8.34,0,0,1,3.34.06c.84.36,1,1.3.58,2.85a2.93,2.93,0,0,1-1.7,2.12,9.51,9.51,0,0,1-3.39.2,12.65,12.65,0,0,1-7-2.85,18.31,18.31,0,0,1-4.61-5.23A16.18,16.18,0,0,1,222.89,62a12.06,12.06,0,0,1-6.73,2.65l-.9.13a5.41,5.41,0,0,1-2.75,0c-.64-.27-1.15-1.08-1.54-2.45-.56-1.9-.4-3,.48-3.38a5.83,5.83,0,0,1,2.86.33l1.11.27q3.66.06,7.05-3.84a11.87,11.87,0,0,0,3.28-8.47,8.73,8.73,0,0,0-.32-2.32,1.89,1.89,0,0,0-1-1.32,2.47,2.47,0,0,1-1.8-2.65c.14-1.19.95-1.79,2.43-1.79A6.62,6.62,0,0,1,229,40.38a3.5,3.5,0,0,1,1.85,2.85,3.06,3.06,0,0,1-.1.79,2.65,2.65,0,0,1-.11.66c-.1.36-.18.62-.21.8a10,10,0,0,0,0,1.12,17.91,17.91,0,0,1-.11,1.86c-.07.66-.16,1.47-.26,2.44a14.06,14.06,0,0,0,4.18,6.23M247,5.56a4.71,4.71,0,0,1-.11.8,3.55,3.55,0,0,0-.1.79,4.8,4.8,0,0,0-.11,1.06q-.21,5.56-.16,13t.27,10.19a12.4,12.4,0,0,1-.11,4.5,3.22,3.22,0,0,1-2.12,2.12c-1.41.44-2.27.09-2.59-1.06a18.28,18.28,0,0,1-.06-4.89l.06-.67c.1-1.1.19-2.78.26-5s.2-4.83.27-7.61c-.71,0-1.73,0-3.07.07a21.38,21.38,0,0,0-2.86.2l-.85.06a8,8,0,0,1-3.07.07c-.64-.27-1.13-1.11-1.49-2.52-.49-1.89-.35-3,.43-3.37.46-.27,1.39-.22,2.8.13l1.43.26,6.68.4q0-1.32,0-2.85c0-.66-.07-1.52-.11-2.58a8.82,8.82,0,0,0-.32-2.31,2.22,2.22,0,0,0-1-1.46,2.49,2.49,0,0,1-1.64-2.72C239.69,1,240.47.4,241.85.4a5.89,5.89,0,0,1,3.44,1.32,3.82,3.82,0,0,1,1.85,3,3.33,3.33,0,0,1-.1.86M229.19,30.12a9.63,9.63,0,0,1-3.44.13c-1.7-.09-3.9-.15-6.62-.2q-4.56-.06-6.94.07l-1.38.26a2.45,2.45,0,0,1-1.32.14A4.07,4.07,0,0,1,208.11,29a5.74,5.74,0,0,1-.84-2.18,6.64,6.64,0,0,1,.21-1.85l.1-.4c.07-.62.13-1.37.16-2.25a16.06,16.06,0,0,0,0-2,13.47,13.47,0,0,0-.37-2.31,1.94,1.94,0,0,0-1-1.39c-1.41-.58-2-1.46-1.85-2.65s1-1.79,2.48-1.79a6.59,6.59,0,0,1,2.39.46,9.22,9.22,0,0,1,1.9,1.2,4.4,4.4,0,0,0,.59.26,2,2,0,0,0,.79.13c.6,0,2.38,0,5.35-.13q4.08-.13,6.3-.26c.28,0,.46-.07.53-.2a1,1,0,0,0,.27-.53l.05-4.64a1.27,1.27,0,0,0-.16-.53,1.13,1.13,0,0,0-.63-.13q-3.35-.06-6.31,0t-6.51.47l-.9.06a5.22,5.22,0,0,1-2.7,0c-.6-.26-1.1-1.08-1.48-2.45C206,4,206.15,2.94,207,2.58a5.1,5.1,0,0,1,2.76.13l1.16.27a65.38,65.38,0,0,0,8.58.4c1.91,0,3.76,0,5.56-.14l1-.19A3.79,3.79,0,0,1,227.23,3a2.81,2.81,0,0,1,1.38.79,4.52,4.52,0,0,1,1.27,1.92,4.28,4.28,0,0,1-.16,1.66l-.21,1.26q-.1,1.13-.21,2.91V13.9a1.94,1.94,0,0,1,.69.86,3.6,3.6,0,0,1-.27,1.86,3.25,3.25,0,0,1-1.64,2.31,9.42,9.42,0,0,1-3.44.14q-2.34-.21-6.78-.27h-5.09a.69.69,0,0,0-.47.13.93.93,0,0,0-.11.53l-.16,5a1.56,1.56,0,0,0,.11.67,1.19,1.19,0,0,0,.79.33,57.88,57.88,0,0,0,5.88-.07c2.68-.09,5-.2,6.94-.33l.32-.07a10.27,10.27,0,0,1,4,.14c1,.35,1.22,1.3.8,2.84a3.1,3.1,0,0,1-1.7,2.12M196.6,5.56a3.44,3.44,0,0,1-.1.73c-.07.35-.13.62-.16.79a11,11,0,0,0-.05,1.2Q196,20.46,196,33.5t.37,24.89a19.85,19.85,0,0,1-.21,4.63,3.25,3.25,0,0,1-2.06,2.12c-1.24.31-2,0-2.39-1.06a15.92,15.92,0,0,1-.21-4.3l0-1.39c.22-5.74.37-11.21.48-16.42q.21-8.61.21-16.81h-3.33a20.9,20.9,0,0,0-3,.19l-.85.14a7,7,0,0,1-2.91.06c-.6-.26-1.08-1.1-1.43-2.51-.53-2-.39-3.18.42-3.58a5,5,0,0,1,2.81.2l1.17.27c.81.08,2.06.17,3.76.26,1.55.09,2.66.13,3.33.13L192.1,13c-.7,0-1.78,0-3.23.07a18.94,18.94,0,0,0-2.91.2l-.9.13a5.81,5.81,0,0,1-2.86,0c-.6-.27-1.08-1.1-1.43-2.52-.53-2-.39-3.18.42-3.57a4.93,4.93,0,0,1,2.81.2l1.17.33,3.91.2c1.45.09,2.42.13,2.92.13v-.6a6.26,6.26,0,0,0-.27-1.25,2,2,0,0,0-1-1.26,2.72,2.72,0,0,1-1.65-2.85A2,2,0,0,1,191.41.4,5.77,5.77,0,0,1,195,1.72a4,4,0,0,1,1.69,3.05,2.69,2.69,0,0,1-.11.79M174.15,9.2a7.15,7.15,0,0,0-6-2.71,7.06,7.06,0,0,0-6,2.71,12,12,0,0,0-2,7.28,11.71,11.71,0,0,0,2,7.15,7,7,0,0,0,6,2.78,7.07,7.07,0,0,0,6-2.78,11.28,11.28,0,0,0,2.07-7.15,11.56,11.56,0,0,0-2.07-7.28M177.59,27q-3.08,3.9-9.42,3.9T158.74,27q-2.91-3.65-2.91-10.53,0-7.08,2.91-10.72,3.07-3.84,9.43-3.84t9.42,3.84q3,3.64,3,10.72,0,6.89-3,10.53"/><path class="cls-1" d="M665.1,311.35a8,8,0,0,1,6.42-3.06,7.32,7.32,0,0,1,6.24,3.13c1.53,2.09,2.3,5,2.3,8.59h-18q.48-5.6,3-8.66m-3.37-2.76q-4.25,5.15-4.24,14.33,0,8.73,4,14A12.62,12.62,0,0,0,680,339.08a15.39,15.39,0,0,0,4.81-8l-4.36-1.2a11,11,0,0,1-3.11,5.23A8.35,8.35,0,0,1,665,334q-2.57-3.33-3-9.15H685q.42-10.38-3.35-15.9t-9.73-5.52q-5.91,0-10.15,5.15m-20.67,32.84,10.57-37.32H646.8l-8.31,31.65-8.3-31.65h-4.84l10.58,37.32Zm-33.32-37.32H591.85V309h11.41v27.62H591.85v4.85H619.5v-4.85H607.74Zm-4.66-9.26h5.13v-7.09h-5.13ZM585.4,340.46v-4.55a15.82,15.82,0,0,1-6,1.27q-6.27,0-6.27-7.32V309h11.4v-4.85H573.1v-9h-4.48v9h-10V309h10v21q0,6.49,2.81,9.37a9.75,9.75,0,0,0,7.28,2.87,12.72,12.72,0,0,0,6.69-1.72m-37-1.12a15.91,15.91,0,0,0,4.66-7.69l-4.6-1.26a12,12,0,0,1-2.66,4.85,6.52,6.52,0,0,1-5.1,2.09,8.22,8.22,0,0,1-7.11-4q-2.68-4-2.69-10.75t2.63-10.52a8.26,8.26,0,0,1,7.17-3.81q6,0,7.76,6.79l4.54-1a14.4,14.4,0,0,0-4.51-8,11.61,11.61,0,0,0-7.67-2.65,12.55,12.55,0,0,0-10.42,5.11q-4,5.11-4,14t4,14.29a12.42,12.42,0,0,0,10.36,5.34,11.08,11.08,0,0,0,7.58-2.84m-47.51-28a8,8,0,0,1,6.42-3.06,7.32,7.32,0,0,1,6.24,3.13c1.54,2.09,2.3,5,2.3,8.59h-18q.48-5.6,3-8.66m-3.37-2.76q-4.25,5.15-4.24,14.33,0,8.73,4,14a12.62,12.62,0,0,0,18.54,2.16,15.32,15.32,0,0,0,4.81-8l-4.36-1.2a10.93,10.93,0,0,1-3.1,5.23A8.37,8.37,0,0,1,500.77,334q-2.56-3.33-3-9.15h22.93q.42-10.38-3.34-15.9t-9.74-5.52q-5.91,0-10.15,5.15m-21.08-20.91h-16v4.78h11.47v44.2H460.46v4.77h27.71v-4.77H476.41Zm-32.85,0H427.61v4.78h11.47v44.2H427.61v4.77h27.72v-4.77H443.56Zm-44.31,34.87q0-6.65,2.44-10.45a7.75,7.75,0,0,1,6.87-3.81,7.59,7.59,0,0,1,6.81,3.81q2.38,3.79,2.39,10.45t-2.42,10.75a7.54,7.54,0,0,1-6.78,4,7.7,7.7,0,0,1-6.84-4q-2.48-4-2.47-10.75m23,0q0-8.44-3.76-13.78a11.62,11.62,0,0,0-9.92-5.33,11.75,11.75,0,0,0-10,5.33q-3.82,5.34-3.82,13.78t3.85,14.07q3.86,5.56,9.94,5.56t9.89-5.52q3.8-5.54,3.79-14.11m-36.58,15.64a23.45,23.45,0,0,0,5-11.31l-4.66-1.27a18.7,18.7,0,0,1-3.23,8.13,7.62,7.62,0,0,1-6.45,3.51q-5.31,0-8.12-6.45t-2.81-16.09q0-9.78,2.9-16.31t8.21-6.54a7.26,7.26,0,0,1,6.3,3.48,16.94,16.94,0,0,1,2.78,8.17l5-1.19A21,21,0,0,0,386,291a11.83,11.83,0,0,0-9.35-4.33q-7.53,0-11.73,7.72t-4.21,20.2q0,12.46,4.18,20.19t11.58,7.73a11.75,11.75,0,0,0,9.23-4.29m-86.51,3.24V319.86a20.75,20.75,0,0,1,1.46-8.36c1-2.19,2.24-3.29,3.8-3.29q3.34,0,3.34,8.07v25.15h4.48V320a22.87,22.87,0,0,1,1.34-8.55c.9-2.16,2.16-3.25,3.8-3.25a2.69,2.69,0,0,1,2.62,1.94,18,18,0,0,1,.78,6.2v25.08h4.48V314.48a15.51,15.51,0,0,0-1.82-8,5.54,5.54,0,0,0-4.93-3.06q-4.25,0-6.93,6.19c-.75-4.13-2.65-6.19-5.67-6.19a6,6,0,0,0-4.12,1.67,10.93,10.93,0,0,0-2.87,4.52l-.36-5.52h-3.88v37.32Zm-19.83-53.75H263.38v4.78h11.46v44.2H263.38v4.77h27.71v-4.77H279.32Zm-32.9,16.43H230.53V309h11.41v27.62H230.53v4.85h27.65v-4.85H246.42Zm-4.66-9.26h5.13v-7.09h-5.13Zm-38.52,46.58V316.65h18.27v-5.23H203.24V292.91H224.5v-5.23h-26v53.75Zm-55.31-53.75H132v4.78h11.46v44.2H132v4.77H159.7v-4.77H147.93ZM121.18,336l.42,5.45h3.7V304.11h-4.48v18.74c0,4.47-.72,8-2.15,10.56a7.09,7.09,0,0,1-6.63,3.84q-7,0-7.05-8.88V304.11h-4.48v24q0,6.93,2.81,10.48a9.27,9.27,0,0,0,7.7,3.55q6.51,0,10.16-6.2M70.77,322.55q0-6.65,2.45-10.45a7.73,7.73,0,0,1,6.87-3.81,7.61,7.61,0,0,1,6.81,3.81q2.38,3.79,2.39,10.45T86.87,333.3a7.56,7.56,0,0,1-6.78,4,7.67,7.67,0,0,1-6.84-4q-2.48-4-2.48-10.75m23,0q0-8.44-3.77-13.78a11.6,11.6,0,0,0-9.91-5.33,11.77,11.77,0,0,0-10,5.33q-3.81,5.34-3.82,13.78t3.85,14.07q3.85,5.56,10,5.56T90,336.66q3.8-5.54,3.8-14.11M41,311.35a8,8,0,0,1,6.42-3.06,7.32,7.32,0,0,1,6.24,3.13c1.53,2.09,2.3,5,2.3,8.59H38q.48-5.6,3-8.66m-3.37-2.76q-4.25,5.15-4.25,14.33,0,8.73,4,14a12.62,12.62,0,0,0,18.54,2.16,15.39,15.39,0,0,0,4.81-8l-4.36-1.2a11,11,0,0,1-3.11,5.23A8.35,8.35,0,0,1,40.91,334q-2.56-3.33-3-9.15H60.86q.42-10.38-3.35-15.9t-9.73-5.52q-5.91,0-10.15,5.15M24.93,338a16.87,16.87,0,0,0,3.74-11.24,15.33,15.33,0,0,0-.69-4.74,14.4,14.4,0,0,0-1.55-3.43,10,10,0,0,0-2.63-2.54,22.48,22.48,0,0,0-3-1.83c-.83-.4-2-.94-3.58-1.64l-1.91-.82a20.75,20.75,0,0,1-6.69-4.22q-2.08-2.2-2.09-6.61c0-3,.72-5.25,2.15-6.79a8,8,0,0,1,6.15-2.32q7.65,0,8.54,8.74l4.78-1.12q-.6-6.35-4.24-9.59a12.81,12.81,0,0,0-8.84-3.25,12.6,12.6,0,0,0-9.62,3.95q-3.69,4-3.7,10.83Q1.73,312.55,13,317l1.91.74c1.43.6,2.53,1.09,3.29,1.46a18.06,18.06,0,0,1,2.68,1.72,6.81,6.81,0,0,1,2.27,2.83,10.14,10.14,0,0,1,.72,4,10.35,10.35,0,0,1-2.27,6.79q-2.27,2.76-6.75,2.76-8.41,0-9.91-10.75l-5,1.05q.84,7.17,4.72,11.05a13.41,13.41,0,0,0,9.91,3.88q6.57,0,10.3-4.44"/><path class="cls-1" d="M532.61,263.5Q530,259.58,530,252.71t2.6-10.49a8,8,0,0,1,6.89-3.69,7.43,7.43,0,0,1,6.6,3.66q2.37,3.66,2.36,10.52,0,7-2.39,10.87a7.38,7.38,0,0,1-6.57,3.84,8,8,0,0,1-6.86-3.92m12.18,6.94a13.71,13.71,0,0,0,3.94-4.36l.66,5.6h3.52V217.92h-4.48V239.2h-.12a10.42,10.42,0,0,0-3.76-4,10.14,10.14,0,0,0-5.49-1.53,11.78,11.78,0,0,0-9.68,5q-3.89,5-3.88,14.07T529.35,267q3.85,5.26,9.65,5.26a9.56,9.56,0,0,0,5.79-1.83m-45.63,1.24v-18q0-6.93,2.42-11.05a7.51,7.51,0,0,1,6.78-4.1,6,6,0,0,1,4.72,2.13q1.84,2.13,1.85,6.6v24.42h4.48V247.26q0-7-2.78-10.3a9.3,9.3,0,0,0-7.49-3.28,10.22,10.22,0,0,0-6.28,2,12,12,0,0,0-3.94,5.34l-.41-6.64h-3.83v37.33Zm-33.32-9.63a6.08,6.08,0,0,1,1.31-4,8.05,8.05,0,0,1,3.85-2.43,32,32,0,0,1,5.11-1.19q2.56-.37,6.27-.6v2.84a10.68,10.68,0,0,1-2.93,7.69,9.8,9.8,0,0,1-7.4,3.06q-6.21,0-6.21-5.37m12.24,8.51a11.57,11.57,0,0,0,4.66-4.56l.54,5.68h3.52V247.34q0-7-3.44-10.34a11.65,11.65,0,0,0-8.45-3.32,12.68,12.68,0,0,0-8.42,2.95,13.39,13.39,0,0,0-4.54,7.8l4.6,1q1.62-6.87,8.18-6.87a7.5,7.5,0,0,1,5.44,2.09c1.43,1.39,2.15,3.71,2.15,6.94v1.72q-21,1.13-21,13.06a9.64,9.64,0,0,0,2.77,7.25,10,10,0,0,0,7.26,2.68,13.65,13.65,0,0,0,6.69-1.71m-76-7.92q-2.47-3.51-2.48-10.23c0-4.42.82-7.85,2.45-10.26a7.8,7.8,0,0,1,13.2,0q2.44,3.66,2.45,10.22t-2.48,10.16a7.86,7.86,0,0,1-13.14.07m16.34,20q3.75-4.44,3.76-12.43V234.35h-3.94l-.42,5.37a9.74,9.74,0,0,0-9.44-6,11.42,11.42,0,0,0-9.52,5.11q-3.8,5.11-3.8,13.62t3.74,13.52q3.74,5.07,9.4,5.07a10,10,0,0,0,9.5-5.82v4.41c0,4-.76,7.07-2.27,9.29a7.76,7.76,0,0,1-6.87,3.32q-7,0-8.72-7.69l-4.18,1a13.75,13.75,0,0,0,4.39,8.55,12.54,12.54,0,0,0,8.51,3,12.31,12.31,0,0,0,9.86-4.44m-50.65-10.93v-18q0-6.93,2.42-11.05a7.51,7.51,0,0,1,6.78-4.1,6,6,0,0,1,4.72,2.13q1.85,2.13,1.85,6.6v24.42H388V247.26q0-7-2.78-10.3a9.3,9.3,0,0,0-7.49-3.28,10.22,10.22,0,0,0-6.28,2,12,12,0,0,0-3.94,5.34l-.42-6.64h-3.82v37.33Zm-16.66-5.45.42,5.45h3.7V234.35h-4.48v18.74q0,6.72-2.15,10.56a7.09,7.09,0,0,1-6.63,3.84q-7.05,0-7.05-8.88V234.35h-4.48v24q0,6.94,2.81,10.49a9.3,9.3,0,0,0,7.71,3.54q6.51,0,10.15-6.19m-49,5.45v-18c0-4.57.85-8.25,2.56-11s4-4.14,6.75-4.14q6.45,0,6.45,8.21v24.94h4.48v-25q0-6-2.47-9.48t-7.68-3.51q-7.05,0-10.09,7.24V217.77h-4.48v53.91Zm-15.95-2.51a11.09,11.09,0,0,0,3.29-8.24,10.14,10.14,0,0,0-.78-4.15,7,7,0,0,0-2.3-2.87,15.63,15.63,0,0,0-2.87-1.72A26.59,26.59,0,0,0,280.1,251l-2.75-.82a14.76,14.76,0,0,1-4.84-2.21A4.52,4.52,0,0,1,271,244.2a5.12,5.12,0,0,1,1.82-4.18,7.79,7.79,0,0,1,5.05-1.49q6,0,7,5.52l4.3-.89c-.52-3.39-1.79-5.81-3.8-7.28a13.14,13.14,0,0,0-15.61.78,10.28,10.28,0,0,0-3.23,7.92,10,10,0,0,0,.66,3.73,8.14,8.14,0,0,0,4.06,4.59,22.4,22.4,0,0,0,2.72,1.31c.77.29,1.74.62,2.89,1l2.45.74a12.47,12.47,0,0,1,4.36,2.06,4.27,4.27,0,0,1,1.38,3.47,5.43,5.43,0,0,1-2,4.51,8.09,8.09,0,0,1-5.2,1.61q-6.57,0-8.06-7.47l-4.6,1a13.08,13.08,0,0,0,4.15,8.32,12.2,12.2,0,0,0,8.33,2.95,11.69,11.69,0,0,0,8.6-3.25m-50.29-7.12a6.08,6.08,0,0,1,1.32-4,8,8,0,0,1,3.85-2.43,31.78,31.78,0,0,1,5.11-1.19q2.56-.37,6.27-.6v2.84a10.68,10.68,0,0,1-2.93,7.69,9.8,9.8,0,0,1-7.4,3.06q-6.23,0-6.22-5.37m12.25,8.51a11.57,11.57,0,0,0,4.66-4.56l.53,5.68h3.53V247.34q0-7-3.44-10.34a11.65,11.65,0,0,0-8.45-3.32,12.68,12.68,0,0,0-8.42,2.95,13.39,13.39,0,0,0-4.54,7.8l4.6,1q1.62-6.87,8.18-6.87a7.52,7.52,0,0,1,5.44,2.09c1.43,1.39,2.15,3.71,2.15,6.94v1.72q-21,1.13-21,13.06a9.64,9.64,0,0,0,2.78,7.25,10,10,0,0,0,7.26,2.68,13.65,13.65,0,0,0,6.69-1.71m-34.52-52.64H197.68v4.78h11.47v44.2H197.68v4.78h27.71V266.9H213.63Zm-43.42,44.13a6.13,6.13,0,0,1,1.31-4,8,8,0,0,1,3.86-2.43,31.91,31.91,0,0,1,5.1-1.19q2.57-.37,6.27-.6v2.84a10.68,10.68,0,0,1-2.92,7.69,9.83,9.83,0,0,1-7.41,3.06q-6.21,0-6.21-5.37m12.24,8.51a11.51,11.51,0,0,0,4.66-4.56l.54,5.68h3.52V247.34q0-7-3.43-10.34a11.67,11.67,0,0,0-8.45-3.32,12.65,12.65,0,0,0-8.42,2.95,13.34,13.34,0,0,0-4.54,7.8l4.6,1q1.6-6.87,8.18-6.87a7.48,7.48,0,0,1,5.43,2.09c1.44,1.39,2.15,3.71,2.15,6.94v1.72q-21,1.13-21,13.06a9.64,9.64,0,0,0,2.78,7.25,10,10,0,0,0,7.25,2.68,13.65,13.65,0,0,0,6.69-1.71m-34.22,1.12v-21l13.44-32.78h-5.08L145.78,245.1l-10.87-27.18h-5.07l13.61,32.78v21Z"/><path class="cls-1" d="M641.54,197.15h-6.15v8.44h6.15Zm0-28.82h-6.15v8.44h6.15Zm-26.87,34.76a11.16,11.16,0,0,0,3.28-8.25,10.18,10.18,0,0,0-.78-4.15,7,7,0,0,0-2.3-2.87A15.58,15.58,0,0,0,612,186.1a26.79,26.79,0,0,0-3.44-1.19l-2.74-.82a14.46,14.46,0,0,1-4.84-2.21,4.49,4.49,0,0,1-1.55-3.77,5.09,5.09,0,0,1,1.82-4.18,7.74,7.74,0,0,1,5-1.49q6,0,7,5.53l4.3-.9q-.78-5.07-3.79-7.28a13.15,13.15,0,0,0-15.62.78,10.29,10.29,0,0,0-3.22,7.92,9.93,9.93,0,0,0,.65,3.73,8.23,8.23,0,0,0,4.06,4.59,23.92,23.92,0,0,0,2.72,1.31c.78.3,1.74.62,2.9,1l2.45.75a12.4,12.4,0,0,1,4.36,2,4.3,4.3,0,0,1,1.37,3.47,5.45,5.45,0,0,1-2,4.52,8.13,8.13,0,0,1-5.2,1.6q-6.57,0-8.06-7.46l-4.6,1a13.13,13.13,0,0,0,4.15,8.33,12.24,12.24,0,0,0,8.33,2.94,11.75,11.75,0,0,0,8.61-3.24m-50.41,2.5V193.72l5.55-6.35,11.83,18.22h5.43l-13.91-21,13.5-16.35H580.8L564.26,187.6V151.84h-4.48v53.75Zm-15.89-2.09a16,16,0,0,0,4.66-7.69l-4.6-1.27a12,12,0,0,1-2.65,4.85,6.52,6.52,0,0,1-5.11,2.09,8.22,8.22,0,0,1-7.11-4q-2.68-3.95-2.69-10.75t2.63-10.52a8.26,8.26,0,0,1,7.17-3.81q6,0,7.76,6.79l4.54-1a14.47,14.47,0,0,0-4.51-7.95,11.61,11.61,0,0,0-7.67-2.65,12.55,12.55,0,0,0-10.42,5.11q-4,5.12-4,14t4,14.3a12.41,12.41,0,0,0,10.36,5.33,11.12,11.12,0,0,0,7.58-2.83m-39.18-35.24H493.31v4.85h11.41v27.62H493.31v4.86H521v-4.86H509.19ZM504.54,159h5.13v-7.09h-5.13Zm-32.43,46.59V187.07q0-6.8,2.68-10.71a8.33,8.33,0,0,1,7.17-3.92,12.91,12.91,0,0,1,5.44,1.12v-4.7a10.63,10.63,0,0,0-5.38-1.27q-6.87,0-10,6.72l-.42-6.05h-3.94v37.33ZM435.17,175.5a8,8,0,0,1,6.42-3.06,7.33,7.33,0,0,1,6.24,3.14q2.3,3.13,2.3,8.58h-18q.48-5.59,3-8.66m-3.38-2.76q-4.23,5.14-4.24,14.33,0,8.75,4,14a12.64,12.64,0,0,0,18.54,2.17,15.42,15.42,0,0,0,4.81-8L450.55,194a11,11,0,0,1-3.11,5.22,8.35,8.35,0,0,1-12.36-1.08q-2.56-3.32-3-9.15H455q.41-10.37-3.35-15.9T442,167.59q-5.91,0-10.16,5.15m-20.66,32.85,10.57-37.33h-4.84l-8.3,31.65-8.3-31.65h-4.84L406,205.59ZM367.29,196a6.08,6.08,0,0,1,1.32-4,8,8,0,0,1,3.85-2.42,30.78,30.78,0,0,1,5.11-1.2q2.56-.37,6.27-.59v2.83a10.68,10.68,0,0,1-2.93,7.69,9.8,9.8,0,0,1-7.4,3.06q-6.22,0-6.22-5.37m12.25,8.51a11.51,11.51,0,0,0,4.66-4.56l.53,5.68h3.53V181.25q0-7-3.44-10.34a11.7,11.7,0,0,0-8.45-3.32,12.68,12.68,0,0,0-8.42,2.95,13.39,13.39,0,0,0-4.54,7.8l4.6,1q1.62-6.87,8.18-6.87a7.52,7.52,0,0,1,5.44,2.09q2.14,2.1,2.15,6.94v1.72q-21,1.13-21,13.07a9.62,9.62,0,0,0,2.78,7.24,10,10,0,0,0,7.26,2.68,13.65,13.65,0,0,0,6.69-1.71m-46.77,1.12V163.26H333l7.53,25.68h4.66l7.52-25.68h.18v42.33h4.6V151.84h-5.91l-8.78,30.46L334,151.84h-5.85v53.75Zm-54.94,0V173.11h11v-4.85h-11v-4.18q0-4,2.06-6a7.32,7.32,0,0,1,5.29-2,11.08,11.08,0,0,1,5,1.27v-4.78a9.47,9.47,0,0,0-4.89-1.34,11.47,11.47,0,0,0-8.58,3.47q-3.36,3.47-3.37,9.44v4.11h-9.2v4.85h9.2v32.48ZM235,186.7q0-6.64,2.45-10.45a7.73,7.73,0,0,1,6.87-3.81,7.58,7.58,0,0,1,6.8,3.81q2.4,3.81,2.39,10.45t-2.42,10.75a7.52,7.52,0,0,1-6.77,4,7.65,7.65,0,0,1-6.84-4q-2.49-4-2.48-10.75m23,0q0-8.43-3.76-13.77a11.59,11.59,0,0,0-9.91-5.34,11.74,11.74,0,0,0-10,5.34q-3.82,5.34-3.82,13.77c0,5.67,1.28,10.37,3.85,14.07s5.88,5.56,10,5.56,7.35-1.84,9.88-5.52S258,192.42,258,186.7m-86.72,10.71q-2.62-3.91-2.62-10.78t2.59-10.49a8.06,8.06,0,0,1,6.9-3.7,7.43,7.43,0,0,1,6.6,3.66q2.35,3.66,2.36,10.53t-2.39,10.86a7.38,7.38,0,0,1-6.57,3.84,8,8,0,0,1-6.87-3.92m12.19,7a13.86,13.86,0,0,0,3.94-4.37l.66,5.6h3.52V151.84h-4.48v21.27H187a10.42,10.42,0,0,0-3.76-4,10.15,10.15,0,0,0-5.5-1.53,11.77,11.77,0,0,0-9.67,5q-3.88,5-3.88,14.07T168,200.92q3.85,5.27,9.65,5.26a9.57,9.57,0,0,0,5.79-1.82m-45.63,1.23v-18q0-6.94,2.42-11a7.51,7.51,0,0,1,6.78-4.11,6,6,0,0,1,4.72,2.13q1.85,2.13,1.85,6.61v24.41h4.48V181.18q0-7-2.78-10.31a9.3,9.3,0,0,0-7.5-3.28,10.11,10.11,0,0,0-6.27,2,12,12,0,0,0-3.94,5.33l-.42-6.64h-3.82v37.33ZM104.51,196a6.08,6.08,0,0,1,1.32-4,8,8,0,0,1,3.85-2.42,30.78,30.78,0,0,1,5.11-1.2q2.56-.37,6.27-.59v2.83a10.68,10.68,0,0,1-2.93,7.69,9.8,9.8,0,0,1-7.4,3.06q-6.23,0-6.22-5.37m12.25,8.51a11.51,11.51,0,0,0,4.66-4.56l.53,5.68h3.53V181.25q0-7-3.44-10.34a11.7,11.7,0,0,0-8.45-3.32,12.68,12.68,0,0,0-8.42,2.95,13.39,13.39,0,0,0-4.54,7.8l4.6,1q1.62-6.87,8.18-6.87a7.5,7.5,0,0,1,5.44,2.09q2.15,2.1,2.15,6.94v1.72q-21,1.13-21,13.07a9.61,9.61,0,0,0,2.77,7.24,10,10,0,0,0,7.26,2.68,13.65,13.65,0,0,0,6.69-1.71M71.85,180.73H79a10.89,10.89,0,0,1,7.5,2.42q2.71,2.43,2.72,7.43a13,13,0,0,1-.84,5,6.43,6.43,0,0,1-2.36,3A9.58,9.58,0,0,1,82.87,200a17.23,17.23,0,0,1-3.8.37H71.85Zm0-23.67h6.27q9.5,0,9.49,9.18,0,4.71-2.5,7a9.77,9.77,0,0,1-6.81,2.28H71.85Zm8,48.53q6.75,0,10.45-3.77T94,190.66A14.3,14.3,0,0,0,91.5,182a9.27,9.27,0,0,0-6.39-4l-.06-.15a8.84,8.84,0,0,0,5.43-4.22A14.82,14.82,0,0,0,92.39,166q0-6.72-3.55-10.45T78.3,151.84H67.07v53.75Z"/><path class="cls-1" d="M679.29,386.85a4.3,4.3,0,0,1-1.38.06c-.83,0-2-.05-3.61-.06-1.77,0-3,0-3.59,0l-.46.06a1.42,1.42,0,0,1-.66,0,2.54,2.54,0,0,1-.76-.67,2.35,2.35,0,0,1-.46-.8,1.27,1.27,0,0,1,0-.53l0-.28c0-.56.08-1.12.11-1.69a13,13,0,0,0,0-1.85,3.66,3.66,0,0,0-.12-.76.92.92,0,0,0-.38-.53c-.57-.26-.81-.58-.74-1s.4-.57,1-.57a4,4,0,0,1,1.82.42c.59.31.88.68.88,1.12a.73.73,0,0,1,0,.25.79.79,0,0,1,0,.23l-.09.26c0,.11,0,.23,0,.36,0,.54,0,1.19,0,1.94v1.6a.44.44,0,0,0,.09.32.46.46,0,0,0,.35.15c.34,0,1.37,0,3.09-.05s2.91-.06,3.71-.1l.07,0a5.43,5.43,0,0,1,1.64,0c.4.14.51.51.34,1.12a1.32,1.32,0,0,1-.67.91m2.55-19.13a.84.84,0,0,1,0,.23,1,1,0,0,0,0,.25,1.42,1.42,0,0,0,0,.36q-.08,2-.06,4.35c0,1.61.05,2.7.11,3.3a2.88,2.88,0,0,1-.07,1.43,1.44,1.44,0,0,1-1.05.68c-.66.15-1.07,0-1.23-.34a4,4,0,0,1-.06-1.61l0-.16c0-.34.06-.86.11-1.57s.07-1.45.1-2.24l-1.18,0a5.28,5.28,0,0,0-.95.06l-.3,0a3.16,3.16,0,0,1-1.26,0c-.26-.11-.45-.44-.59-1s-.15-1.12.19-1.27a2.07,2.07,0,0,1,1.14,0l.52.08,2.43.13a5.89,5.89,0,0,0,0-.84c0-.19,0-.41,0-.66a2.54,2.54,0,0,0-.13-.76,1,1,0,0,0-.38-.55c-.49-.25-.71-.57-.65-1s.38-.59.93-.59a3.8,3.8,0,0,1,1.69.42c.59.3.88.61.88.95a1,1,0,0,1,0,.28m-13.13,1.56-1.33,0-.45,0a3.92,3.92,0,0,1-1.5,0,1.29,1.29,0,0,1-.76-.93c-.28-.76-.21-1.21.22-1.37a3,3,0,0,1,1.39,0l.57.09c1.22.08,2.41.12,3.55.12s2.21,0,3.21-.12l.06,0a6,6,0,0,1,1.84.06c.52.17.66.58.42,1.22a1.35,1.35,0,0,1-.8.83,4.24,4.24,0,0,1-1.52.06l-1.14-.06h-.81a6.74,6.74,0,0,1-.08.93,6.85,6.85,0,0,1-.15.86,4.92,4.92,0,0,0,1.18,2,2.2,2.2,0,0,0,1.52.7l.13,0a4.92,4.92,0,0,1,1.56,0q.72.23.36,1.2a1.36,1.36,0,0,1-.82.85,4.4,4.4,0,0,1-1.46,0,3.94,3.94,0,0,1-2.32-.83,4.88,4.88,0,0,1-1.35-1.48,6.24,6.24,0,0,1-1.48,1.55,3.63,3.63,0,0,1-2,.76l-.29,0a3.26,3.26,0,0,1-1.27,0,1.4,1.4,0,0,1-.78-.93c-.27-.81-.18-1.29.27-1.43a2.92,2.92,0,0,1,1.38.1l.4.09a1.67,1.67,0,0,0,1-.38,4.66,4.66,0,0,0,1-1,4.91,4.91,0,0,0,.72-1.45,4,4,0,0,0,.15-1.65Zm-9.47,17.1a1.44,1.44,0,0,1-1,.78c-.72.2-1.17.11-1.33-.27a3.67,3.67,0,0,1,0-1.6l0-.22c.07-.64.13-1.29.17-1.94s.05-1,.05-1.39a.41.41,0,0,0-.15-.36.34.34,0,0,0-.26-.09h-3.1c-1.52,0-2.68,0-3.48.11l-.47,0a2.85,2.85,0,0,1-1.12,0,1.3,1.3,0,0,1-.67-.93c-.28-.79-.2-1.25.25-1.39a2.77,2.77,0,0,1,1.33.08l.4.09c1,.07,2.44.1,4.27.1,1.36,0,2.43,0,3.19,0l.12,0a.3.3,0,0,0,.13,0,.92.92,0,0,1,.48-.11,1.93,1.93,0,0,1,.83.4,1.48,1.48,0,0,1,.63.76,1.14,1.14,0,0,1-.1.59l-.11.38c0,.78,0,1.4,0,1.86,0,.61,0,1.18.1,1.71a3.05,3.05,0,0,1-.08,1.52m-2.45-7.87a3.5,3.5,0,0,1-1.24,0l-.45,0c-1.18-.06-2.55-.08-4.09-.07-1.2,0-2.58,0-4.14.07l-.26,0a4.71,4.71,0,0,1-1.56,0c-.29-.1-.51-.41-.65-.93-.23-.68-.15-1.09.23-1.23a2.79,2.79,0,0,1,1.27,0l.44.06c.49,0,1,.07,1.5.08s1.24,0,2.07,0l0-.3c0-.21-.09-.37-.13-.49a1,1,0,0,0-.4-.42,1.33,1.33,0,0,1-.43-.21.71.71,0,0,1-.23-.27,3.56,3.56,0,0,1-2-1.25,3.21,3.21,0,0,1-.59-2,5.26,5.26,0,0,1,.08-.89,2.83,2.83,0,0,1,.15-.53l0,0a1.15,1.15,0,0,1-1.27-1c-.26-.74-.19-1.19.22-1.35a3.53,3.53,0,0,1,1.43.05l.61.1.57,0c.43,0,.75,0,1,0,.37,0,.72.05,1,.05a.38.38,0,0,0-.06-.19l-.19-.21c-.64-.3-.91-.67-.83-1.1s.48-.66,1.19-.66a3.27,3.27,0,0,1,1.66.47c.55.34.83.7.83,1.1a2.28,2.28,0,0,1,0,.27,1.22,1.22,0,0,0,0,.17l0,.15c.3,0,.61,0,.93-.05l.8,0,.3,0,.06,0a6.33,6.33,0,0,1,1.92,0c.52.16.67.56.43,1.21a1.62,1.62,0,0,1-.57.74,1.53,1.53,0,0,1-.81.21,1.41,1.41,0,0,1,.19.46,3.07,3.07,0,0,1,.17,1A3.18,3.18,0,0,1,655,374a4.55,4.55,0,0,1-2.75,1.16.35.35,0,0,1,.07.12.79.79,0,0,1,0,.17,1.07,1.07,0,0,1-.05.32.8.8,0,0,1-.08.21l-.06.21,0,.45c.45,0,.94,0,1.47,0s1.06-.05,1.48-.08l.59-.06a4.75,4.75,0,0,1,1.59,0c.43.15.53.54.29,1.16a1.47,1.47,0,0,1-.78.93m5-10.56a1,1,0,0,1,0,.25,1.85,1.85,0,0,0-.06.26,1.11,1.11,0,0,0,0,.33c-.06,1.31-.08,2.83-.07,4.54s.05,2.88.11,3.47a2.55,2.55,0,0,1-.07,1.43,1.5,1.5,0,0,1-1.11.68c-.71.15-1.15,0-1.31-.32a3.5,3.5,0,0,1-.07-1.56l0-.23c.07-.75.14-1.9.19-3.47.06-1.84.06-3.3,0-4.39a2.87,2.87,0,0,0-.14-.76,1.15,1.15,0,0,0-.38-.55c-.57-.25-.81-.57-.74-1s.38-.59,1-.59a4.13,4.13,0,0,1,1.82.44c.63.33.95.71.95,1.16a.87.87,0,0,1,0,.28m-8.65,2.58a4,4,0,0,0-2.12-.45,3.89,3.89,0,0,0-2.11.45,1.29,1.29,0,0,0-.57,1.14,1.33,1.33,0,0,0,.57,1.18,4,4,0,0,0,2.11.42,4.06,4.06,0,0,0,2.12-.42,1.32,1.32,0,0,0,.59-1.18,1.29,1.29,0,0,0-.59-1.14M641.64,368a.79.79,0,0,1,0,.23,2.15,2.15,0,0,0-.08.25,2.3,2.3,0,0,0,0,.38c-.09,2.71-.12,5.46-.11,8.26s.05,5.4.15,8a3.4,3.4,0,0,1-.13,1.48,1.45,1.45,0,0,1-1.07.68c-.64.09-1.05,0-1.23-.34a3.51,3.51,0,0,1-.13-1.4l0-.42q.19-3.9.26-7.94,0-4.2-.07-8.11a2.39,2.39,0,0,0-.14-.76,1,1,0,0,0-.38-.52c-.57-.27-.81-.61-.74-1s.39-.61,1-.61a3.82,3.82,0,0,1,1.88.46c.59.33.89.72.89,1.17a.79.79,0,0,1-.05.25m-7,7a1.55,1.55,0,0,1-1.09.65c-.69.16-1.12.05-1.27-.33a4.38,4.38,0,0,1,0-1.61l0-.13c.07-.66.12-1.4.17-2.23s.05-1.34,0-1.69a.74.74,0,0,0-.06-.38.4.4,0,0,0-.36-.13h-2.39c-1,0-1.95.07-2.77.13l-.35,0a2.41,2.41,0,0,1-1.1,0,1.52,1.52,0,0,1-.57-1c-.21-.68-.14-1.1.21-1.24a2.22,2.22,0,0,1,1.14,0l.38.06c1,.09,2.18.13,3.46.13l2.37-.06.38,0,.27-.09a1,1,0,0,1,.51,0,2.21,2.21,0,0,1,.76.49,1.72,1.72,0,0,1,.53.65,1.08,1.08,0,0,1-.09.53,1.5,1.5,0,0,0-.08.27,1.33,1.33,0,0,0-.07.38c0,.83,0,1.56,0,2.18a19.33,19.33,0,0,0,.13,2,2.92,2.92,0,0,1-.11,1.42m-15.88,11.89a4.59,4.59,0,0,1-1.48,0q-.84,0-3.48-.06c-1.72,0-2.93,0-3.64,0a.77.77,0,0,0-.25,0,1.28,1.28,0,0,0-.23.08,1,1,0,0,1-.59.07,1.59,1.59,0,0,1-.76-.64,1.28,1.28,0,0,1-.32-1.26l.06-.32c0-.18.05-.39.07-.61v-.51A2.72,2.72,0,0,0,608,383a.65.65,0,0,0-.25-.38c-.65-.27-.93-.64-.83-1.1s.48-.7,1.19-.7a3.38,3.38,0,0,1,1,.15,4.27,4.27,0,0,1,.8.4.58.58,0,0,0,.17.06.66.66,0,0,0,.25.05l3-.05c1.72,0,2.82,0,3.32-.08a.33.33,0,0,0,.14,0,.26.26,0,0,0,.09-.11v-.84a.14.14,0,0,0-.07-.13l-.19,0q-1.53,0-3.27,0c-1.39,0-2.52.05-3.38.13l-.44,0a3,3,0,0,1-1.14,0,1.44,1.44,0,0,1-.72-1c-.27-.78-.19-1.24.23-1.4a3,3,0,0,1,1.33.09l.45.08c1,.07,2.47.12,4.28.13,1.45,0,2.47,0,3.07,0l.33-.07a1.37,1.37,0,0,1,.55,0,1.36,1.36,0,0,1,.7.32,1.49,1.49,0,0,1,.63.8.89.89,0,0,1-.08.57l-.11.38a7.37,7.37,0,0,0-.08.78v.45a.5.5,0,0,1,.25.31,1.17,1.17,0,0,1-.1.76,1.23,1.23,0,0,1-.79.87,4.46,4.46,0,0,1-1.45,0q-.93,0-3.51-.06h-2.78a.27.27,0,0,0-.17,0,.14.14,0,0,0,0,.1,5,5,0,0,0,0,.6v.44l0,.1a.44.44,0,0,0,0,.15.39.39,0,0,0,.17.07l3.19-.05c1.76,0,2.95-.05,3.57-.08l.06,0a5.67,5.67,0,0,1,1.82,0c.49.16.63.56.4,1.2a1.3,1.3,0,0,1-.8.83m2.76-18.9a1,1,0,0,1,0,.25.92.92,0,0,0,0,.26,1.11,1.11,0,0,0,0,.33c-.06,1.19-.08,2.57-.07,4.16s0,2.66.11,3.26a3,3,0,0,1-.06,1.43,1.47,1.47,0,0,1-1.06.68c-.67.15-1.09,0-1.25-.34a5.12,5.12,0,0,1,0-1.61l0-.14,0-.49c0-.28,0-.51.06-.67a8.1,8.1,0,0,0,0-.81h-1.14a6.82,6.82,0,0,0-1,.07l-.32,0a3.63,3.63,0,0,1-1.37,0c-.28-.1-.49-.43-.63-1s-.15-1.14.19-1.28a2.56,2.56,0,0,1,1.22,0l.59.1,2.49.11v-.55c0-.27,0-.46,0-.59v-.66h-1.16a7.68,7.68,0,0,0-1,.07l-.38,0a3.5,3.5,0,0,1-1.33,0c-.27-.12-.47-.45-.61-1s-.15-1.13.19-1.28a2.52,2.52,0,0,1,1.22,0l.59.08,1.42.07c.52,0,.87,0,1.05,0v-.17a1.75,1.75,0,0,0-.12-.32,1.43,1.43,0,0,0-.38-.4c-.5-.25-.72-.57-.66-1s.38-.59.93-.59a3.58,3.58,0,0,1,1.69.44c.59.33.89.71.89,1.16a.87.87,0,0,1,0,.28m-9.2,3.93v-.34c0-.07,0-.11-.07-.13l-.12,0h0l-4.31,0a.32.32,0,0,0-.19,0,.14.14,0,0,0,0,.11,6.87,6.87,0,0,0-.07,1c0,.5,0,.81,0,.93a.19.19,0,0,0,0,.12.3.3,0,0,0,.16.07l2.18,0c1,0,1.76,0,2.2-.07.07,0,.12,0,.14,0s.07,0,.09-.1Zm2.36-3.59a2.32,2.32,0,0,1-.06.27,1.89,1.89,0,0,0-.06.21,1,1,0,0,0,0,.26,18.31,18.31,0,0,0-.07,2.13c0,1.1,0,1.89,0,2.36l.07.3a1.82,1.82,0,0,1,.06.53,2,2,0,0,1-.38.74,1.67,1.67,0,0,1-.76.63,1.11,1.11,0,0,1-.61-.08l-.24-.07a.66.66,0,0,0-.23,0l-2.49,0c-1.08,0-1.93,0-2.53,0a.78.78,0,0,0-.26,0,2,2,0,0,0-.23.09,1.24,1.24,0,0,1-.59.08,1.78,1.78,0,0,1-.74-.67,2,2,0,0,1-.4-.81.87.87,0,0,1,.06-.48l.09-.24a20.1,20.1,0,0,0,.1-2.06c0-1,0-1.7,0-2.26l0-.09a1.15,1.15,0,0,0-.13-.34.32.32,0,0,0-.23-.21,1.46,1.46,0,0,1-.7-.48.93.93,0,0,1-.12-.64.87.87,0,0,1,.36-.55,1.33,1.33,0,0,1,.8-.23,3.29,3.29,0,0,1,1.65.47c.54.33.82.7.82,1.09a2,2,0,0,1,0,.41l-.09.33a1.6,1.6,0,0,0-.06.32c0,.07.07.11.17.13.34,0,1,0,2.09,0l2.32,0c.14,0,.18-.18.13-.53a.9.9,0,0,0-.4-.66,1.45,1.45,0,0,1-.68-.48.8.8,0,0,1-.13-.61.76.76,0,0,1,.34-.55,1.48,1.48,0,0,1,.83-.21,3.11,3.11,0,0,1,1.62.46c.55.33.83.68.83,1.08a1.49,1.49,0,0,1-.05.36m-15.76,18.09a1.44,1.44,0,0,1-1,.78c-.72.2-1.16.11-1.33-.27a3.73,3.73,0,0,1,0-1.6l0-.22c.07-.64.12-1.29.17-1.94s0-1,0-1.39a.41.41,0,0,0-.15-.36.33.33,0,0,0-.25-.09h-3.11c-1.52,0-2.68,0-3.48.11l-.46,0a2.84,2.84,0,0,1-1.12,0,1.3,1.3,0,0,1-.68-.93c-.28-.79-.2-1.25.25-1.39a2.77,2.77,0,0,1,1.33.08l.41.09c1,.07,2.43.1,4.26.1,1.37,0,2.43,0,3.19,0l.13,0a.27.27,0,0,0,.12,0,1,1,0,0,1,.49-.11,1.9,1.9,0,0,1,.82.4,1.43,1.43,0,0,1,.63.76,1,1,0,0,1-.1.59l-.11.38c0,.78,0,1.4,0,1.86,0,.61.05,1.18.11,1.71a3.15,3.15,0,0,1-.09,1.52m3-8.3a3.58,3.58,0,0,1-1.39.09q-1.45-.1-6.86-.09c-3.28,0-5.64,0-7.08.07l-.27,0a4.8,4.8,0,0,1-1.58,0c-.3-.11-.53-.45-.68-1-.23-.74-.14-1.18.25-1.33a2.77,2.77,0,0,1,1.31,0l.42.08q2,.15,7.52.13,5.32,0,7-.11a5.2,5.2,0,0,1,1.71,0c.45.16.58.55.4,1.19a1.32,1.32,0,0,1-.72.9m-8.57-8.23c1.58,0,2.62-.06,3.13-.08l.12,0a5.42,5.42,0,0,1,1.73.07c.5.15.63.53.4,1.14a1.23,1.23,0,0,1-.8.84,4,4,0,0,1-1.45.07c-.5,0-1.55-.05-3.15-.07h-3.1v.57a.16.16,0,0,0,0,.15c0,.06.08.09.17.11.42,0,1.49,0,3.2,0s3,0,3.59-.08l.07,0a5.66,5.66,0,0,1,1.81,0c.5.16.63.55.41,1.18a1.36,1.36,0,0,1-.83.83,4.48,4.48,0,0,1-1.46,0c-.6,0-1.78,0-3.52,0s-3,0-3.65,0a.78.78,0,0,0-.26,0l-.23.06a1,1,0,0,1-.59.09,1.73,1.73,0,0,1-.76-.66,1.53,1.53,0,0,1-.36-.74,2,2,0,0,1,0-.5l.06-.28v-.06c.06-.61.09-1.08.09-1.44a14.71,14.71,0,0,0,0-1.75,2.44,2.44,0,0,0-.13-.65c0-.19-.14-.29-.25-.32a1.23,1.23,0,0,1-.68-.46.82.82,0,0,1-.15-.64.94.94,0,0,1,.36-.53,1.41,1.41,0,0,1,.83-.23,3.38,3.38,0,0,1,1,.15,2.83,2.83,0,0,1,.82.4.26.26,0,0,0,.15.06.72.72,0,0,0,.26,0c.39,0,1.37,0,3,0,1.78,0,3-.06,3.55-.1l.13,0a5.52,5.52,0,0,1,1.77.06c.48.16.6.54.38,1.16a1.28,1.28,0,0,1-.8.87,4.51,4.51,0,0,1-1.48,0c-.62,0-1.77,0-3.44,0h-2.79c-.1,0-.16,0-.19.06a.41.41,0,0,0-.06.27l0,.51c.64,0,1.68,0,3.12,0m-20.31,17a4.21,4.21,0,0,1-1.37.06c-.83,0-2-.05-3.61-.06-1.77,0-3,0-3.59,0L564,387a1.42,1.42,0,0,1-.66,0,2.54,2.54,0,0,1-.76-.67,2.19,2.19,0,0,1-.46-.8,1.27,1.27,0,0,1,0-.53l0-.28c0-.56.08-1.12.1-1.69a11.86,11.86,0,0,0,0-1.85,4.49,4.49,0,0,0-.12-.76,1,1,0,0,0-.38-.53c-.57-.26-.81-.58-.74-1s.4-.57,1-.57a3.89,3.89,0,0,1,1.81.42c.6.31.89.68.89,1.12a.73.73,0,0,1,0,.25.79.79,0,0,1,0,.23l-.09.26c0,.11,0,.23,0,.36,0,.54,0,1.19,0,1.94v1.6a.49.49,0,0,0,.08.32.51.51,0,0,0,.36.15c.34,0,1.37,0,3.09-.05s2.91-.06,3.71-.1l.07,0a5.43,5.43,0,0,1,1.64,0c.4.14.51.51.34,1.12a1.3,1.3,0,0,1-.68.91m2.58-18.9a1,1,0,0,1,0,.25,1.85,1.85,0,0,0-.06.26,1.09,1.09,0,0,0,0,.33c0,1.31-.06,2.73-.06,4.25s.05,2.57.11,3.17a2.66,2.66,0,0,1-.07,1.43,1.5,1.5,0,0,1-1.12.68c-.7.14-1.14,0-1.31-.32a3.62,3.62,0,0,1-.08-1.52l0-.27c.07-.76.13-1.82.19-3.17.06-1.66.06-3,0-4.1a3.28,3.28,0,0,0-.15-.76,1,1,0,0,0-.38-.55c-.56-.25-.81-.57-.74-1s.39-.59,1-.59a4.06,4.06,0,0,1,1.81.44c.64.33.95.71.95,1.16a.86.86,0,0,1,0,.28m-9.37,1.31a3,3,0,0,0-2.22-.78,2.91,2.91,0,0,0-2.22.78,3.67,3.67,0,0,0,0,4.31,2.88,2.88,0,0,0,2.22.8,3.08,3.08,0,0,0,2.22-5.11m1.71,5.68a5.33,5.33,0,0,1-3.93,1.33,5.26,5.26,0,0,1-3.93-1.33,4.74,4.74,0,0,1-1.22-3.51,4.88,4.88,0,0,1,1.22-3.57,5.34,5.34,0,0,1,3.93-1.3,5.4,5.4,0,0,1,3.93,1.3,4.84,4.84,0,0,1,1.24,3.57,4.71,4.71,0,0,1-1.24,3.51m-11.46-2.11a2.9,2.9,0,0,1-1.22,0l-.27,0a4.88,4.88,0,0,0-.66-.07h-.74q-.06,2.77,0,6.1,0,3,.15,6.19a3.4,3.4,0,0,1-.13,1.48,1.46,1.46,0,0,1-1.08.68q-1,.17-1.26-.36a3.83,3.83,0,0,1-.09-1.44l0-.36q.19-3.9.24-7.94.06-4.2,0-8.11a3.13,3.13,0,0,0-.14-.76,1,1,0,0,0-.43-.52c-.55-.27-.79-.61-.71-1s.38-.61,1-.61a3.9,3.9,0,0,1,1.9.46c.59.33.88.72.88,1.17a.77.77,0,0,1,0,.25.79.79,0,0,1,0,.23,2.15,2.15,0,0,0-.08.25,2.25,2.25,0,0,0,0,.38l-.06,1.91.78-.07.91-.06.42-.06a2.65,2.65,0,0,1,1.19,0c.36.16.44.59.23,1.29s-.38.92-.64,1M547.43,376A4.44,4.44,0,0,1,546,376c-.58,0-1.45-.05-2.6-.07l-2.77,0a.74.74,0,0,0-.25.05l-.21.08a1,1,0,0,1-.59.09,1.59,1.59,0,0,1-.78-.66,1.77,1.77,0,0,1-.43-.89,1.94,1.94,0,0,1,.17-.74,3.74,3.74,0,0,0,.09-.65c0-.25,0-.46,0-.61a2.83,2.83,0,0,0-.13-.66,1,1,0,0,0-.25-.44c-.65-.27-.93-.62-.83-1.06s.48-.67,1.18-.67a3.41,3.41,0,0,1,1,.15,3.65,3.65,0,0,1,.82.4.58.58,0,0,0,.17.06.62.62,0,0,0,.25,0l2,0,2.28,0h.13l.27-.06a.15.15,0,0,0,.06-.11l0,0V369s-.06-.07-.14-.1h-2.47c-.81,0-1.65.06-2.54.13l-.46,0a2.85,2.85,0,0,1-1.12,0,1.52,1.52,0,0,1-.72-.95c-.28-.78-.2-1.23.23-1.37a2.9,2.9,0,0,1,1.35.06l.43.08c1,.09,2.16.13,3.4.13.81,0,1.54,0,2.19,0l.34-.07a2.28,2.28,0,0,1,.55,0,1.71,1.71,0,0,1,.7.32,1.6,1.6,0,0,1,.63.8.91.91,0,0,1-.09.57l-.1.38c0,.4-.05.75-.06,1.06v.46a.54.54,0,0,1,.23.34,1.18,1.18,0,0,1-.11.76,1.23,1.23,0,0,1-.78.87,4.79,4.79,0,0,1-1.46,0c-.62,0-1.49-.05-2.64-.07H541a.19.19,0,0,0-.12.07.16.16,0,0,0-.07.1,4,4,0,0,0,0,.66v.53l0,.1a.27.27,0,0,0,0,.15.35.35,0,0,0,.19.06c.38,0,1.14,0,2.28,0s2-.06,2.69-.1l.19,0a5.42,5.42,0,0,1,1.73.07c.46.15.59.55.38,1.18a1.3,1.3,0,0,1-.83.82m-14.59,10.86a4.3,4.3,0,0,1-1.38.06c-.83,0-2-.05-3.61-.06-1.77,0-3,0-3.59,0l-.46.06a1.43,1.43,0,0,1-.66,0,2.54,2.54,0,0,1-.76-.67,2.35,2.35,0,0,1-.46-.8,1.27,1.27,0,0,1,0-.53l0-.28,0-.34a8.29,8.29,0,0,0,.09-1,8.47,8.47,0,0,0,0-1.22,3.66,3.66,0,0,0-.12-.76.92.92,0,0,0-.38-.53c-.57-.25-.81-.58-.74-1s.4-.57,1-.57a4,4,0,0,1,1.82.42c.59.31.88.68.88,1.12a.93.93,0,0,1,0,.27.59.59,0,0,1,0,.21,2.16,2.16,0,0,0-.08.26,2,2,0,0,0,0,.36c0,.56,0,1,0,1.45v1.12a.44.44,0,0,0,.09.32q.08.12.36.15c.33,0,1.36,0,3.08-.05s2.91-.06,3.71-.1l.07,0a5.43,5.43,0,0,1,1.64,0c.4.14.51.51.34,1.12a1.32,1.32,0,0,1-.67.91m3-8.26a3.56,3.56,0,0,1-1.25,0l-.44,0c-1.76,0-3.58-.06-5.45-.06-1.17,0-3,0-5.51,0l-2.68,0-.26,0a4.2,4.2,0,0,1-1.56,0c-.3-.1-.51-.41-.65-.93-.23-.67-.15-1.08.23-1.22a2.83,2.83,0,0,1,1.29,0l.42.08c.31,0,1,0,2.11.05l2.87.06,1.35,0,0-.57a2.24,2.24,0,0,0-.15-.51.88.88,0,0,0-.38-.46,1.57,1.57,0,0,1-.29-.13.7.7,0,0,1-.21-.14,5.2,5.2,0,0,1-2.92-1.5,3.76,3.76,0,0,1-.88-2.56,3.68,3.68,0,0,1,1.37-3.06,9,9,0,0,1,9,0,4,4,0,0,1,.34,5.78,5.5,5.5,0,0,1-3.4,1.42l0,.21a1,1,0,0,1,0,.3,1.89,1.89,0,0,1-.06.21l-.07.29,0,.72.66,0,2.76,0,2.16-.07.59-.06a4.19,4.19,0,0,1,1.58,0c.44.14.54.53.3,1.16a1.43,1.43,0,0,1-.78.91m-5.73-9.46a5,5,0,0,0-2.78-.65,4.91,4.91,0,0,0-2.79.65,2.09,2.09,0,0,0,0,3.36,4.83,4.83,0,0,0,2.79.65,4.91,4.91,0,0,0,2.78-.65,2,2,0,0,0,0-3.36m-20,10.9a3.65,3.65,0,0,1-1.39.08q-1.46-.11-6.86-.08-4.92,0-7.08.06l-.29,0a4.15,4.15,0,0,1-1.56,0c-.3-.11-.53-.45-.68-1-.21-.72-.13-1.16.23-1.31a2.54,2.54,0,0,1,1.27,0l.49.08c1.3.1,3.81.15,7.51.13s5.87,0,7-.1a5.47,5.47,0,0,1,1.71,0c.45.15.58.55.4,1.18a1.37,1.37,0,0,1-.72.91m-5.19-10.88a.38.38,0,0,0,0-.23.67.67,0,0,0-.21,0h-3.19c-1.56,0-2.75.07-3.55.13l-.46,0a2.84,2.84,0,0,1-1.12,0c-.3-.11-.52-.43-.68-.95-.28-.78-.2-1.23.23-1.37a2.73,2.73,0,0,1,1.31.06l.42.08c1.07.06,2.51.1,4.31.11,1.61,0,2.66,0,3.17,0l.34-.07a2.16,2.16,0,0,1,.53,0,1.64,1.64,0,0,1,.71.32,1.71,1.71,0,0,1,.62.78,1,1,0,0,1-.09.53,1.13,1.13,0,0,0-.08.19.54.54,0,0,0,0,.21c0,1,0,1.78,0,2.47,0,.87.05,1.54.11,2a1.94,1.94,0,0,1-.09,1.18,1.48,1.48,0,0,1-1,.72c-.73.19-1.18.06-1.35-.4a3.58,3.58,0,0,1,0-1.48l0,0,.13-1.21h-3.11c-1.49,0-2.57.05-3.25.11l-.3,0a3.2,3.2,0,0,1-1.26,0,1.19,1.19,0,0,1-.72-.91c-.28-.83-.2-1.31.25-1.45a2.7,2.7,0,0,1,1.37.12l.34.09c.8.05,2,.09,3.68.1,1.45,0,2.47,0,3.08,0Zm-18.12-.82a1,1,0,0,1-.05.21,1.5,1.5,0,0,0-.08.27,2.75,2.75,0,0,0,0,.41c-.09,2.7-.12,5.25-.11,7.66s.07,4.82.17,7.24a3.65,3.65,0,0,1-.13,1.48,1.39,1.39,0,0,1-1.07.66c-.62.11-1,0-1.18-.32a3.13,3.13,0,0,1-.13-1.39l0-.43q.16-3,.23-5.82c0-2,0-3.88,0-5.77h-.7a4.71,4.71,0,0,0-.67.09l-.3,0a2.23,2.23,0,0,1-1,0,.7.7,0,1,0-1.39-.15,4.26,4.26,0,0,1-1.4,0c-.52,0-1.27-.07-2.26-.08h-2.19v1.39a.21.21,0,0,0,0,.15s.06.05.13.06q.75,0,2.43,0c1,0,1.85-.06,2.59-.1l.19,0a5.31,5.31,0,0,1,1.71.07c.47.15.59.55.38,1.18a1.28,1.28,0,0,1-.82.82,4.39,4.39,0,0,1-1.46.05c-.57,0-1.45-.05-2.62-.07l-2.76,0a.7.7,0,0,0-.25.05l-.22.08a1,1,0,0,1-.59.09,1.59,1.59,0,0,1-.78-.66,1.72,1.72,0,0,1-.36-.74,1,1,0,0,1,.07-.51l.06-.27c.06-.55.09-1.26.1-2.13s0-1.73,0-2.56a5.12,5.12,0,0,0-.12-.69.85.85,0,0,0-.26-.43c-.65-.28-.93-.64-.84-1.07s.49-.66,1.18-.66a3.38,3.38,0,0,1,1,.15,2.88,2.88,0,0,1,.83.4l.17.09.25,0,2,0c1.17,0,2.05-.07,2.66-.13l.12,0a5.56,5.56,0,0,1,1.78.06c.48.17.6.56.38,1.18a1.29,1.29,0,0,1-.8.85,4.59,4.59,0,0,1-1.48,0c-.62,0-1.46,0-2.52,0h-1.87a.47.47,0,0,0-.24,0,.18.18,0,0,0-.06.15l0,.95,0,.34c.46,0,1.2,0,2.22-.07l2.21-.06a6.69,6.69,0,0,1,1.17-.06,1.86,1.86,0,0,1,.9.19.66.66,0,0,1,.64-.34,5,5,0,0,1,.84.1l.36.09,1.54.13,0-1.19a2.54,2.54,0,0,0-.13-.76,1.23,1.23,0,0,0-.42-.53c-.52-.25-.75-.59-.7-1s.4-.63,1-.63a3.61,3.61,0,0,1,1.81.46,1.43,1.43,0,0,1,.87,1.18,1.45,1.45,0,0,1,0,.28m3.59-.36a1.21,1.21,0,0,1,0,.23,1.23,1.23,0,0,0-.08.26,2.24,2.24,0,0,0,0,.38q-.15,3.95-.13,8.32c0,2.74.06,5.37.17,7.87a3.75,3.75,0,0,1-.13,1.48,1.45,1.45,0,0,1-1.07.68c-.62.11-1,0-1.19-.36a4,4,0,0,1-.1-1.44l0-.36c.13-2.5.2-5.12.23-7.85s0-5.61-.06-8.2a2.76,2.76,0,0,0-.13-.76.86.86,0,0,0-.38-.52q-.8-.4-.72-1c.06-.41.38-.61,1-.61a3.62,3.62,0,0,1,1.82.46c.59.33.89.72.89,1.17a1.47,1.47,0,0,1,0,.27m-20,4.86a2.9,2.9,0,0,1-1.22,0l-.28,0a4.49,4.49,0,0,0-.65-.07h-.74c0,1.85-.06,3.88,0,6.1q0,3,.14,6.19a3.44,3.44,0,0,1-.12,1.48,1.5,1.5,0,0,1-1.08.68c-.66.11-1.08,0-1.27-.36a4.15,4.15,0,0,1-.08-1.44l0-.36c.13-2.6.2-5.25.23-7.94s0-5.5,0-8.11a3.08,3.08,0,0,0-.15-.76,1.06,1.06,0,0,0-.42-.52q-.82-.4-.72-1c.06-.41.39-.61,1-.61a3.9,3.9,0,0,1,1.9.46c.59.33.88.72.88,1.17a.77.77,0,0,1,0,.25.79.79,0,0,1,0,.23l-.09.25c0,.12,0,.24,0,.38l-.06,1.91.78-.07.91-.06.42-.06a2.6,2.6,0,0,1,1.18,0q.56.24.24,1.29c-.17.58-.38.92-.64,1m-11.06-3.61a.47.47,0,0,0-.28-.07c-.48,0-1.21,0-2.19,0s-1.65,0-1.9,0l-.07,0c-.1,0-.16,0-.19,0a.58.58,0,0,0,0,.28c0,.55,0,1.26,0,2.13v1.82c0,.08,0,.14,0,.16a.23.23,0,0,0,.13,0l.06,0h4.25a.33.33,0,0,0,.25-.09.4.4,0,0,0,.08-.25v-3.89a.26.26,0,0,0-.1-.14m2.3,4.6a1.21,1.21,0,0,1,.06.51,2,2,0,0,1-.38.74,1.7,1.7,0,0,1-.78.63,1,1,0,0,1-.59-.09l-.23-.06a.7.7,0,0,0-.23,0c-.65,0-1.48,0-2.5,0s-1.85,0-2.53,0a.73.73,0,0,0-.25,0l-.21.06a.93.93,0,0,1-.58.09,1.93,1.93,0,0,1-.78-.66,2.12,2.12,0,0,1-.44-.78.86.86,0,0,1,.08-.42,1.13,1.13,0,0,1,.07-.15c0-.07,0-.12,0-.17,0-.5.07-1.14.08-1.9a16.84,16.84,0,0,0,0-2.07,3.13,3.13,0,0,0-.12-.67.74.74,0,0,0-.26-.4c-.63-.28-.9-.65-.82-1.1s.49-.66,1.18-.66a3.57,3.57,0,0,1,.95.13,3.73,3.73,0,0,1,.76.34l.26,0a2,2,0,0,0,.38,0c.57,0,1.45,0,2.61,0,.86,0,1.59,0,2.18,0l.36-.08a1.72,1.72,0,0,1,.53,0,1.3,1.3,0,0,1,.69.31,1.58,1.58,0,0,1,.64.78.84.84,0,0,1-.09.55c0,.1-.07.17-.08.21a.75.75,0,0,0,0,.24,16.53,16.53,0,0,0-.09,2.07,21.58,21.58,0,0,0,.09,2.23Zm-15-5.49a1.72,1.72,0,0,1,0,.21,1.05,1.05,0,0,0-.09.27c0,.13,0,.27,0,.41q-.12,4-.11,7.66c0,2.41.07,4.82.17,7.24a3.9,3.9,0,0,1-.12,1.48,1.43,1.43,0,0,1-1.08.66c-.62.11-1,0-1.18-.32a3.13,3.13,0,0,1-.13-1.39l0-.43q.17-3,.23-5.82c0-2,0-3.88,0-5.77h-.69a4.66,4.66,0,0,0-.68.09l-.27,0a2.26,2.26,0,0,1-1.06,0,1.52,1.52,0,0,1-.59-1c-.23-.73-.15-1.17.23-1.33a2.38,2.38,0,0,1,1.18.07l.34.06,1.54.13,0-1.19a2.57,2.57,0,0,0-.12-.76,1.25,1.25,0,0,0-.43-.53c-.52-.25-.75-.59-.69-1s.39-.63,1-.63a3.58,3.58,0,0,1,1.81.46,1.43,1.43,0,0,1,.87,1.18,1,1,0,0,1,0,.28m3.59-.36a2.23,2.23,0,0,1,0,.23.9.9,0,0,0-.09.26c0,.11,0,.24,0,.38q-.15,3.95-.13,8.32c0,2.74.06,5.37.17,7.87a4,4,0,0,1-.12,1.48,1.5,1.5,0,0,1-1.08.68c-.62.11-1,0-1.18-.36a3.91,3.91,0,0,1-.11-1.44l0-.36q.19-3.75.23-7.85,0-4.32-.06-8.2a2.43,2.43,0,0,0-.13-.76.83.83,0,0,0-.38-.52c-.53-.27-.77-.61-.71-1s.38-.61,1-.61a3.61,3.61,0,0,1,1.81.46c.59.33.89.72.89,1.17a.93.93,0,0,1,0,.27m-8.53,7.54a4.3,4.3,0,0,1-1.38.06q-1,0-2.64-.06c-1.22,0-2.14,0-2.76,0l-.47.06a1.39,1.39,0,0,1-.65,0,2.42,2.42,0,0,1-.76-.67,2.45,2.45,0,0,1-.47-.78,1.6,1.6,0,0,1,0-.55l.05-.28c0-.53.07-1.08.08-1.64,0-.74,0-1.45,0-2.14a3.08,3.08,0,0,0-.15-.76.85.85,0,0,0-.38-.52c-.55-.26-.79-.58-.74-1s.4-.57,1-.57a4,4,0,0,1,1.84.43c.58.31.87.68.87,1.12a1.55,1.55,0,0,1,0,.29.8.8,0,0,1-.05.23,2.07,2.07,0,0,0-.06.24,3.08,3.08,0,0,0,0,.33q0,1.11-.06,2.22v1.56a.44.44,0,0,0,.08.32.58.58,0,0,0,.38.15c.32,0,1.08,0,2.26,0s2-.07,2.74-.11l.11,0a5.57,5.57,0,0,1,1.6.06c.4.14.51.52.34,1.12a1.2,1.2,0,0,1-.67.89M429.18,368a.79.79,0,0,1,0,.23,2.15,2.15,0,0,0-.08.25,2.25,2.25,0,0,0,0,.38c-.08,2.71-.12,5.46-.1,8.26s.05,5.4.15,8a3.4,3.4,0,0,1-.13,1.48,1.48,1.48,0,0,1-1.08.68c-.63.09-1,0-1.22-.34a3.33,3.33,0,0,1-.13-1.4l0-.42c.13-2.6.21-5.25.26-7.94s0-5.5-.07-8.11a2.14,2.14,0,0,0-.15-.76,1,1,0,0,0-.38-.52c-.56-.27-.81-.61-.73-1s.38-.61,1-.61a3.85,3.85,0,0,1,1.88.46c.59.33.88.72.88,1.17a.77.77,0,0,1,0,.25m-9.2,4.54a2.41,2.41,0,0,0,1.81.91l.17,0a4.74,4.74,0,0,1,1.54.06c.45.17.56.56.32,1.18a1.31,1.31,0,0,1-.8.85,5,5,0,0,1-1.48,0,4.29,4.29,0,0,1-2.6-1,6.75,6.75,0,0,1-1.44-1.69A6.23,6.23,0,0,1,416,374.6a4,4,0,0,1-2.23.91l-.36,0a3.19,3.19,0,0,1-1.19,0,1.35,1.35,0,0,1-.76-.93c-.28-.77-.21-1.23.21-1.37a3,3,0,0,1,1.33.06l.47.09c.75,0,1.49-.47,2.24-1.5a4.36,4.36,0,0,0,1-2.68,2.52,2.52,0,0,0-.11-.68.77.77,0,0,0-.27-.42c-.62-.28-.89-.65-.8-1.1s.47-.65,1.18-.63a3.17,3.17,0,0,1,1.65.46c.56.33.84.68.84,1.08a1.47,1.47,0,0,1,0,.36q0,.1-.06.27a.76.76,0,0,0,0,.19,2.29,2.29,0,0,0,0,.25,4,4,0,0,1-.08.74c0,.2-.09.43-.15.7a6.72,6.72,0,0,0,1.25,2.05m-20.19,12.22a6.54,6.54,0,0,0,6.62-4.69l-2.68-.45c-.69,1.94-1.86,3.05-4,3.05-3.2,0-4.71-2.55-4.71-5.88,0-3.51,1.66-6,4.67-6a3.7,3.7,0,0,1,3.8,3l2.75-.48c-.71-2.66-2.79-4.67-6.42-4.67-4.67,0-7.5,3.48-7.5,8.11s2.78,8,7.45,8m-14.65,0a6.53,6.53,0,0,0,6.61-4.69l-2.68-.45c-.69,1.94-1.86,3.05-4,3.05-3.2,0-4.71-2.55-4.71-5.88,0-3.51,1.66-6,4.67-6a3.7,3.7,0,0,1,3.8,3l2.75-.48c-.71-2.66-2.79-4.67-6.42-4.67-4.67,0-7.5,3.48-7.5,8.11s2.78,8,7.46,8m-16.33-6.16,2.36-7h.08l2.36,7Zm-4.67,5.88h2.73l1.34-3.76h6l1.34,3.76h2.74l-5.64-15.56h-2.88Z"/><polygon class="cls-2" points="509.87 343.63 514.55 343.98 519.19 343.65 524.01 344.14 527.93 340.99 532.62 340.19 536.74 337.89 541.05 335.54 542.35 330.43 544.69 326.55 547.01 322.6 548.41 318.22 550.29 313.75 550.66 308.94 548.16 304.56 547.33 300 546.88 294.97 542.59 292.11 540.03 288.2 536.73 284.83 533.09 281.64 528.59 279.92 523.82 279.37 519.2 278.66 514.56 279.28 509.91 279.43 505.46 280.83 501.62 283.47 496.44 284.1 493.51 288.04 489.89 291.19 486.82 294.99 485.79 299.8 484.5 304.35 485.21 309.13 485.14 313.66 484.26 318.48 485 323.28 487.26 327.56 489.76 331.69 492.88 335.39 496.6 338.47 501.08 340.33 505.64 341.53 509.87 343.63"/><polygon class="cls-2" points="176.52 116.43 177.92 111.94 178.64 107.35 180.21 102.76 178.01 98.24 178.28 93.49 176.97 88.96 175.65 84.22 170.97 81.81 167.72 78.66 164.39 75.51 160.44 73.16 156.5 70.32 151.9 68.88 147.06 70.33 142.44 70.11 137.44 69.42 133.68 72.96 129.3 74.57 125.27 77.03 121.35 79.86 118.65 83.85 117.05 88.38 115.31 92.72 114.88 97.38 113.98 101.95 114.34 106.59 116.05 110.93 115.5 116.12 118.67 119.86 120.93 124.1 123.94 127.94 128.4 130.03 132.54 132.31 137.36 132.69 141.76 133.78 146.26 135.72 151.1 136.09 155.78 134.84 160.37 133.34 164.67 131.13 168.51 128.19 171.33 124.25 173.52 120.08 176.52 116.43"/><polygon class="cls-2" points="308.01 64.69 309.41 60.21 310.14 55.61 311.7 51.03 309.5 46.5 309.78 41.76 308.47 37.23 307.14 32.49 302.46 30.08 299.21 26.93 295.88 23.78 291.93 21.43 288 18.59 283.4 17.15 278.56 18.6 273.93 18.38 268.93 17.69 265.18 21.23 260.79 22.84 256.76 25.3 252.84 28.13 250.15 32.12 248.54 36.65 246.81 40.99 246.37 45.65 245.47 50.22 245.83 54.86 247.55 59.2 247 64.39 250.17 68.13 252.43 72.37 255.43 76.21 259.89 78.29 264.03 80.58 268.85 80.96 273.25 82.05 277.75 83.99 282.59 84.35 287.27 83.11 291.86 81.6 296.16 79.39 300.01 76.46 302.82 72.52 305.02 68.35 308.01 64.69"/></g></g></svg>